<svg xmlns="http://www.w3.org/2000/svg" xmlns:xlink="http://www.w3.org/1999/xlink" aria-hidden="true" role="img"
    class="iconify iconify--logos" width="35.93" height="32" preserveAspectRatio="xMidYMid meet" viewBox="0 0 256 228">
    <path fill="#00D8FF"
        d="M210.483 73.824a171.49 171.49 0 0 0-8.24-2.597c.465-1.9.893-3.777 1.273-5.621c6.238-30.281 2.16-54.676-11.769-62.708c-13.355-7.7-35.196.329-57.254 19.526a171.23 171.23 0 0 0-6.375 5.848a155.866 155.866 0 0 0-4.241-3.917C100.759 3.829 77.587-4.822 63.673 3.233C50.33 10.957 46.379 33.89 51.995 62.588a170.974 170.974 0 0 0 1.892 8.48c-3.28.932-6.445 1.924-9.474 2.98C17.309 83.498 0 98.307 0 113.668c0 15.865 18.582 31.778 46.812 41.427a145.52 145.52 0 0 0 6.921 2.165a167.467 167.467 0 0 0-2.01 9.138c-5.354 28.2-1.173 50.591 12.134 58.266c13.744 7.926 36.812-.22 59.273-19.855a145.567 145.567 0 0 0 5.342-4.923a168.064 168.064 0 0 0 6.92 6.314c21.758 18.722 43.246 26.282 56.54 18.586c13.731-7.949 18.194-32.003 12.4-61.268a145.016 145.016 0 0 0-1.535-6.842c1.62-.48 3.21-.974 4.76-1.488c29.348-9.723 48.443-25.443 48.443-41.52c0-15.417-17.868-30.326-45.517-39.844Zm-6.365 70.984c-1.4.463-2.836.91-4.3 1.345c-3.24-10.257-7.612-21.163-12.963-32.432c5.106-11 9.31-21.767 12.459-31.957c2.619.758 5.16 1.557 7.61 2.4c23.69 8.156 38.14 20.213 38.14 29.504c0 9.896-15.606 22.743-40.946 31.14Zm-10.514 20.834c2.562 12.94 2.927 24.64 1.23 33.787c-1.524 8.219-4.59 13.698-8.382 15.893c-8.067 4.67-25.32-1.4-43.927-17.412a156.726 156.726 0 0 1-6.437-5.87c7.214-7.889 14.423-17.06 21.459-27.246c12.376-1.098 24.068-2.894 34.671-5.345a134.17 134.17 0 0 1 1.386 6.193ZM87.276 214.515c-7.882 2.783-14.16 2.863-17.955.675c-8.075-4.657-11.432-22.636-6.853-46.752a156.923 156.923 0 0 1 1.869-8.499c10.486 2.32 22.093 3.988 34.498 4.994c7.084 9.967 14.501 19.128 21.976 27.15a134.668 134.668 0 0 1-4.877 4.492c-9.933 8.682-19.886 14.842-28.658 17.94ZM50.35 144.747c-12.483-4.267-22.792-9.812-29.858-15.863c-6.35-5.437-9.555-10.836-9.555-15.216c0-9.322 13.897-21.212 37.076-29.293c2.813-.98 5.757-1.905 8.812-2.773c3.204 10.42 7.406 21.315 12.477 32.332c-5.137 11.18-9.399 22.249-12.634 32.792a134.718 134.718 0 0 1-6.318-1.979Zm12.378-84.26c-4.811-24.587-1.616-43.134 6.425-47.789c8.564-4.958 27.502 2.111 47.463 19.835a144.318 144.318 0 0 1 3.841 3.545c-7.438 7.987-14.787 17.08-21.808 26.988c-12.04 1.116-23.565 2.908-34.161 5.309a160.342 160.342 0 0 1-1.76-7.887Zm110.427 27.268a347.8 347.8 0 0 0-7.785-12.803c8.168 1.033 15.994 2.404 23.343 4.08c-2.206 7.072-4.956 14.465-8.193 22.045a381.151 381.151 0 0 0-7.365-13.322Zm-45.032-43.861c5.044 5.465 10.096 11.566 15.065 18.186a322.04 322.04 0 0 0-30.257-.006c4.974-6.559 10.069-12.652 15.192-18.18ZM82.802 87.83a323.167 323.167 0 0 0-7.227 13.238c-3.184-7.553-5.909-14.98-8.134-22.152c7.304-1.634 15.093-2.97 23.209-3.984a321.524 321.524 0 0 0-7.848 12.897Zm8.081 65.352c-8.385-.936-16.291-2.203-23.593-3.793c2.26-7.3 5.045-14.885 8.298-22.6a321.187 321.187 0 0 0 7.257 13.246c2.594 4.48 5.28 8.868 8.038 13.147Zm37.542 31.03c-5.184-5.592-10.354-11.779-15.403-18.433c4.902.192 9.899.29 14.978.29c5.218 0 10.376-.117 15.453-.343c-4.985 6.774-10.018 12.97-15.028 18.486Zm52.198-57.817c3.422 7.8 6.306 15.345 8.596 22.52c-7.422 1.694-15.436 3.058-23.88 4.071a382.417 382.417 0 0 0 7.859-13.026a347.403 347.403 0 0 0 7.425-13.565Zm-16.898 8.101a358.557 358.557 0 0 1-12.281 19.815a329.4 329.4 0 0 1-23.444.823c-7.967 0-15.716-.248-23.178-.732a310.202 310.202 0 0 1-12.513-19.846h.001a307.41 307.41 0 0 1-10.923-20.627a310.278 310.278 0 0 1 10.89-20.637l-.001.001a307.318 307.318 0 0 1 12.413-19.761c7.613-.576 15.42-.876 23.31-.876H128c7.926 0 15.743.303 23.354.883a329.357 329.357 0 0 1 12.335 19.695a358.489 358.489 0 0 1 11.036 20.54a329.472 329.472 0 0 1-11 20.722Zm22.56-122.124c8.572 4.944 11.906 24.881 6.52 51.026c-.344 1.668-.73 3.367-1.15 5.09c-10.622-2.452-22.155-4.275-34.23-5.408c-7.034-10.017-14.323-19.124-21.64-27.008a160.789 160.789 0 0 1 5.888-5.4c18.9-16.447 36.564-22.941 44.612-18.3ZM128 90.808c12.625 0 22.86 10.235 22.86 22.86s-10.235 22.86-22.86 22.86s-22.86-10.235-22.86-22.86s10.235-22.86 22.86-22.86Z">
    </path>
    <defs>
        <symbol id="user" viewBox="0 0 24 24" fill="none" stroke="currentColor" stroke-width="1.5"
            stroke-linecap="round" stroke-linejoin="round">
            <path d="M15.75 6a3.75 3.75 0 1 1-7.5 0 3.75 3.75 0 0 1 7.5 0Z" />
            <path
                d="M4.501 20.118a7.5 7.5 0 0 1 14.998 0A17.933 17.933 0 0 1 12 21.75c-2.676 0-5.216-.584-7.499-1.632Z" />
        </symbol>

        <symbol id="logOut" viewBox="0 0 16 16">
            <path
                d="M6 14H3.33333C2.97971 14 2.64057 13.8595 2.39052 13.6095C2.14048 13.3594 2 13.0203 2 12.6667V3.33333C2 2.97971 2.14048 2.64057 2.39052 2.39052C2.64057 2.14048 2.97971 2 3.33333 2H6"
                stroke-width="1.5" stroke-linecap="round" stroke-linejoin="round" fill="none" />
            <path d="M10.667 11.3334L14.0003 8.00002L10.667 4.66669" stroke-width="1.5" stroke-linecap="round"
                stroke-linejoin="round" fill="none" />
            <path d="M14 8H6" stroke-width="1.5" stroke-linecap="round" stroke-linejoin="round" />
        </symbol>

        <symbol id="menu-open" viewBox="0 0 24 24" fill="none" stroke="currentColor" stroke-width="2"
            stroke-linecap="round" stroke-linejoin="round">
            <path d="M4 6h16M4 12h16m-7 6h7" />
        </symbol>

        <symbol id="menu-close" viewBox="0 0 24 24" fill="none" stroke="currentColor" stroke-width="2"
            stroke-linecap="round" stroke-linejoin="round">
            <path d="M6 18L18 6M6 6l12 12" />
        </symbol>

        <symbol id="eye" viewBox="0 0 20 20">
            <path
                d="M0.833008 9.99998C0.833008 9.99998 4.16634 3.33331 9.99967 3.33331C15.833 3.33331 19.1663 9.99998 19.1663 9.99998C19.1663 9.99998 15.833 16.6666 9.99967 16.6666C4.16634 16.6666 0.833008 9.99998 0.833008 9.99998Z"
                stroke="#2F2F2F" stroke-width="1.8" stroke-linecap="round" stroke-linejoin="round" fill="none" />
            <path
                d="M10 12.5C11.3807 12.5 12.5 11.3807 12.5 10C12.5 8.61929 11.3807 7.5 10 7.5C8.61929 7.5 7.5 8.61929 7.5 10C7.5 11.3807 8.61929 12.5 10 12.5Z"
                stroke="#2F2F2F" stroke-width="1.8" fill="none" />
        </symbol>

        <symbol id="eyeOff" viewBox="0 0 20 20">
            <path
                d="M14.9497 14.9499C13.5252 16.0358 11.7906 16.6373 9.99968 16.6666C4.16634 16.6666 0.833008 9.99994 0.833008 9.99994C1.86958 8.06819 3.30729 6.38045 5.04967 5.04994M8.24968 3.53327C8.82329 3.39901 9.41056 3.33189 9.99968 3.33327C15.833 3.33327 19.1663 9.99994 19.1663 9.99994C18.6605 10.9463 18.0572 11.8372 17.3663 12.6583M11.7663 11.7666C11.5375 12.0122 11.2615 12.2092 10.9548 12.3459C10.6481 12.4825 10.3171 12.556 9.98142 12.5619C9.64574 12.5678 9.31231 12.5061 9.00102 12.3803C8.68972 12.2546 8.40694 12.0675 8.16955 11.8301C7.93215 11.5927 7.745 11.3099 7.61927 10.9986C7.49353 10.6873 7.43178 10.3539 7.4377 10.0182C7.44363 9.68252 7.5171 9.35148 7.65374 9.04481C7.79038 8.73815 7.98739 8.46215 8.23301 8.23327"
                stroke="#2F2F2F" stroke-width="1.8" stroke-linecap="round" stroke-linejoin="round" fill="none" />
            <path d="M0.833008 0.833374L19.1663 19.1667" stroke="#2F2F2F" stroke-width="1.8" stroke-linecap="round"
                stroke-linejoin="round" />
        </symbol>

        <symbol id="coin" viewBox="0 0 256 256">
            <path
                d="M184,89.57V84c0-25.08-37.83-44-88-44S8,58.92,8,84v40c0,20.89,26.25,37.49,64,42.46V172c0,25.08,37.83,44,88,44s88-18.92,88-44V132C248,111.3,222.58,94.68,184,89.57ZM232,132c0,13.22-30.79,28-72,28-3.73,0-7.43-.13-11.08-.37C170.49,151.77,184,139,184,124V105.74C213.87,110.19,232,122.27,232,132ZM72,150.25V126.46A183.74,183.74,0,0,0,96,128a183.74,183.74,0,0,0,24-1.54v23.79A163,163,0,0,1,96,152,163,163,0,0,1,72,150.25Zm96-40.32V124c0,8.39-12.41,17.4-32,22.87V123.5C148.91,120.37,159.84,115.71,168,109.93ZM96,56c41.21,0,72,14.78,72,28s-30.79,28-72,28S24,97.22,24,84,54.79,56,96,56ZM24,124V109.93c8.16,5.78,19.09,10.44,32,13.57v23.37C36.41,141.4,24,132.39,24,124Zm64,48v-4.17c2.63.1,5.29.17,8,.17,3.88,0,7.67-.13,11.39-.35A121.92,121.92,0,0,0,120,171.41v23.46C100.41,189.4,88,180.39,88,172Zm48,26.25V174.4a179.48,179.48,0,0,0,24,1.6,183.74,183.74,0,0,0,24-1.54v23.79a165.45,165.45,0,0,1-48,0Zm64-3.38V171.5c12.91-3.13,23.84-7.79,32-13.57V172C232,180.39,219.59,189.4,200,194.87Z">
            </path>
        </symbol>

        <symbol id="plus" viewBox="0 0 32 32">
            <path stroke-linejoin="round" stroke-linecap="round" stroke-miterlimit="4" stroke-width="2.6667"
                d="M16 6.667v18.667M6.667 16h18.667"></path>
        </symbol>

        <symbol id="minus" viewBox="0 0 203 32">
            <path stroke-linejoin="round" stroke-linecap="round" stroke-miterlimit="4" stroke-width="19.2"
                d="M19.424 16h163.808"></path>
        </symbol>

        <symbol id="clock" viewBox="0 0 256 256">
            <path
                d="M128,24A104,104,0,1,0,232,128,104.11,104.11,0,0,0,128,24Zm0,192a88,88,0,1,1,88-88A88.1,88.1,0,0,1,128,216Zm64-88a8,8,0,0,1-8,8H128a8,8,0,0,1-8-8V72a8,8,0,0,1,16,0v48h48A8,8,0,0,1,192,128Z">
            </path>
        </symbol>

        <symbol id="info" viewBox="0 0 256 256">
            <path
                d="M128,24A104,104,0,1,0,232,128,104.11,104.11,0,0,0,128,24Zm0,192a88,88,0,1,1,88-88A88.1,88.1,0,0,1,128,216Zm16-40a8,8,0,0,1-8,8,16,16,0,0,1-16-16V128a8,8,0,0,1,0-16,16,16,0,0,1,16,16v40A8,8,0,0,1,144,176ZM112,84a12,12,0,1,1,12,12A12,12,0,0,1,112,84Z">
            </path>
        </symbol>

        <symbol id="copy" viewBox="0 0 448 512">
            <path
                d="M208 0L332.1 0c12.7 0 24.9 5.1 33.9 14.1l67.9 67.9c9 9 14.1 21.2 14.1 33.9L448 336c0 26.5-21.5 48-48 48l-192 0c-26.5 0-48-21.5-48-48l0-288c0-26.5 21.5-48 48-48zM48 128l80 0 0 64-64 0 0 256 192 0 0-32 64 0 0 48c0 26.5-21.5 48-48 48L48 512c-26.5 0-48-21.5-48-48L0 176c0-26.5 21.5-48 48-48z">
            </path>
        </symbol>

        <symbol id="phone" viewBox="0 0 512 512">
            <path
                d="M164.9 24.6c-7.7-18.6-28-28.5-47.4-23.2l-88 24C12.1 30.2 0 46 0 64C0 311.4 200.6 512 448 512c18 0 33.8-12.1 38.6-29.5l24-88c5.3-19.4-4.6-39.7-23.2-47.4l-96-40c-16.3-6.8-35.2-2.1-46.3 11.6L304.7 368C234.3 334.7 177.3 277.7 144 207.3L193.3 167c13.7-11.2 18.4-30 11.6-46.3l-40-96z">
            </path>
        </symbol>

        <symbol id="box" viewBox="0 0 512 512">
            <path
                d="M 106.323 18.250 C 105.209 19.488, 97.030 38.725, 88.147 61 L 71.997 101.500 71.999 194.750 L 72 288 66.174 288 C 61.412 288, 59.972 288.411, 58.283 290.250 C 56.920 291.734, 49.371 314.452, 36.103 357 L 15.990 421.500 15.995 456.576 L 16 491.651 18.314 493.826 C 20.575 495.949, 21.270 496, 48.140 496 C 82.604 496, 80 497.497, 80 477.686 L 80 464 152 464 L 224 464 224 477.826 C 224 497.476, 221.390 496, 256.140 496 C 290.604 496, 288 497.497, 288 477.686 L 288 464 360 464 L 432 464 432 477.826 C 432 497.476, 429.390 496, 464.140 496 C 491.604 496, 491.655 495.996, 493.826 493.686 C 495.972 491.401, 496 490.925, 496.005 456.436 L 496.010 421.500 475.897 357 C 462.629 314.452, 455.080 291.734, 453.717 290.250 C 452.028 288.411, 450.588 288, 445.826 288 L 440 288 440.001 194.750 L 440.003 101.500 423.853 61 C 414.970 38.725, 406.791 19.488, 405.677 18.250 L 403.651 16 256 16 L 108.349 16 106.323 18.250 M 113.063 42.750 C 110.715 48.663, 108.567 54.063, 108.290 54.750 C 107.890 55.743, 122.205 56, 177.893 56 L 248 56 248 44 L 248 32 182.666 32 L 117.332 32 113.063 42.750 M 264 44 L 264 56 334.107 56 C 389.795 56, 404.110 55.743, 403.710 54.750 C 403.433 54.063, 401.285 48.663, 398.937 42.750 L 394.668 32 329.334 32 L 264 32 264 44 M 97.063 82.750 C 94.715 88.662, 92.567 94.063, 92.290 94.750 C 91.889 95.744, 107.805 96, 169.893 96 L 248 96 248 84 L 248 72 174.666 72 L 101.332 72 97.063 82.750 M 264 84 L 264 96 342.107 96 C 404.195 96, 420.111 95.744, 419.710 94.750 C 419.433 94.063, 417.285 88.662, 414.937 82.750 L 410.668 72 337.334 72 L 264 72 264 84 M 88 184 L 88 256 168 256 L 248 256 248 184 L 248 112 168 112 L 88 112 88 184 M 264 184 L 264 256 344 256 L 424 256 424 184 L 424 112 344 112 L 264 112 264 184 M 106.455 130.455 L 104 132.909 104 156 L 104 179.091 106.455 181.545 L 108.909 184 136 184 L 163.091 184 165.545 181.545 L 168 179.091 168 156 L 168 132.909 165.545 130.455 L 163.091 128 136 128 L 108.909 128 106.455 130.455 M 282.455 130.455 L 280 132.909 280 156 L 280 179.091 282.455 181.545 L 284.909 184 312 184 L 339.091 184 341.545 181.545 L 344 179.091 344 156 L 344 132.909 341.545 130.455 L 339.091 128 312 128 L 284.909 128 282.455 130.455 M 120 156 L 120 168 136 168 L 152 168 152 156 L 152 144 136 144 L 120 144 120 156 M 296 156 L 296 168 312 168 L 328 168 328 156 L 328 144 312 144 L 296 144 296 156 M 200 208 L 200 216 216 216 L 232 216 232 208 L 232 200 216 200 L 200 200 200 208 M 376 208 L 376 216 392 216 L 408 216 408 208 L 408 200 392 200 L 376 200 376 208 M 200 232 L 200 240 216 240 L 232 240 232 232 L 232 224 216 224 L 200 224 200 232 M 376 232 L 376 240 392 240 L 408 240 408 232 L 408 224 392 224 L 376 224 376 232 M 88 344 L 88 416 168 416 L 248 416 248 344 L 248 272 168 272 L 88 272 88 344 M 264 344 L 264 416 344 416 L 424 416 424 344 L 424 272 344 272 L 264 272 264 344 M 106.455 290.455 L 104 292.909 104 316 L 104 339.091 106.455 341.545 L 108.909 344 136 344 L 163.091 344 165.545 341.545 L 168 339.091 168 316 L 168 292.909 165.545 290.455 L 163.091 288 136 288 L 108.909 288 106.455 290.455 M 282.455 290.455 L 280 292.909 280 316 L 280 339.091 282.455 341.545 L 284.909 344 312 344 L 339.091 344 341.545 341.545 L 344 339.091 344 316 L 344 292.909 341.545 290.455 L 339.091 288 312 288 L 284.909 288 282.455 290.455 M 68.504 309.250 C 67.592 312.137, 66.454 315.738, 65.975 317.250 C 65.140 319.887, 65.246 320, 68.552 320 L 72 320 72 312 C 72 307.600, 71.586 304, 71.080 304 C 70.575 304, 69.415 306.363, 68.504 309.250 M 120 316 L 120 328 136 328 L 152 328 152 316 L 152 304 136 304 L 120 304 120 316 M 296 316 L 296 328 312 328 L 328 328 328 316 L 328 304 312 304 L 296 304 296 316 M 440 312 L 440 320 443.448 320 C 446.754 320, 446.860 319.887, 446.025 317.250 C 445.546 315.738, 444.408 312.137, 443.496 309.250 C 442.585 306.363, 441.425 304, 440.920 304 C 440.414 304, 440 307.600, 440 312 M 58.504 341.250 C 57.592 344.137, 56.454 347.738, 55.975 349.250 L 55.104 352 63.552 352 L 72 352 72 344 L 72 336 66.080 336 L 60.161 336 58.504 341.250 M 440 344 L 440 352 448.448 352 L 456.896 352 456.025 349.250 C 455.546 347.738, 454.408 344.137, 453.496 341.250 L 451.839 336 445.920 336 L 440 336 440 344 M 200 368 L 200 376 216 376 L 232 376 232 368 L 232 360 216 360 L 200 360 200 368 M 376 368 L 376 376 392 376 L 408 376 408 368 L 408 360 392 360 L 376 360 376 368 M 48.504 373.250 C 47.592 376.137, 46.454 379.738, 45.975 381.250 L 45.104 384 58.552 384 L 72 384 72 376 L 72 368 61.080 368 L 50.161 368 48.504 373.250 M 440 376 L 440 384 453.448 384 L 466.896 384 466.025 381.250 C 465.546 379.738, 464.408 376.137, 463.496 373.250 L 461.839 368 450.920 368 L 440 368 440 376 M 200 392 L 200 400 216 400 L 232 400 232 392 L 232 384 216 384 L 200 384 200 392 M 376 392 L 376 400 392 400 L 408 400 408 392 L 408 384 392 384 L 376 384 376 392 M 38.504 405.250 C 37.592 408.137, 36.454 411.738, 35.975 413.250 L 35.104 416 53.552 416 L 72 416 72 408 L 72 400 56.080 400 L 40.161 400 38.504 405.250 M 440 408 L 440 416 458.448 416 L 476.896 416 476.025 413.250 C 475.546 411.738, 474.408 408.137, 473.496 405.250 L 471.839 400 455.920 400 L 440 400 440 408 M 32 440 L 32 448 256 448 L 480 448 480 440 L 480 432 256 432 L 32 432 32 440 M 32 472 L 32 480 48 480 L 64 480 64 472 L 64 464 48 464 L 32 464 32 472 M 240 472 L 240 480 256 480 L 272 480 272 472 L 272 464 256 464 L 240 464 240 472 M 448 472 L 448 480 464 480 L 480 480 480 472 L 480 464 464 464 L 448 464 448 472"
                stroke="none" fill="#040404" fill-rule="evenodd" />
            <path
                d="M 113.063 42.750 C 110.715 48.663, 108.567 54.063, 108.290 54.750 C 107.890 55.743, 122.205 56, 177.893 56 L 248 56 248 44 L 248 32 182.666 32 L 117.332 32 113.063 42.750 M 264 44 L 264 56 334.107 56 C 389.795 56, 404.110 55.743, 403.710 54.750 C 403.433 54.063, 401.285 48.663, 398.937 42.750 L 394.668 32 329.334 32 L 264 32 264 44 M 97.063 82.750 C 94.715 88.662, 92.567 94.063, 92.290 94.750 C 91.889 95.744, 107.805 96, 169.893 96 L 248 96 248 84 L 248 72 174.666 72 L 101.332 72 97.063 82.750 M 264 84 L 264 96 342.107 96 C 404.195 96, 420.111 95.744, 419.710 94.750 C 419.433 94.063, 417.285 88.662, 414.937 82.750 L 410.668 72 337.334 72 L 264 72 264 84 M 88 184 L 88 256 168 256 L 248 256 248 184 L 248 112 168 112 L 88 112 88 184 M 264 184 L 264 256 344 256 L 424 256 424 184 L 424 112 344 112 L 264 112 264 184 M 106.455 130.455 L 104 132.909 104 156 L 104 179.091 106.455 181.545 L 108.909 184 136 184 L 163.091 184 165.545 181.545 L 168 179.091 168 156 L 168 132.909 165.545 130.455 L 163.091 128 136 128 L 108.909 128 106.455 130.455 M 282.455 130.455 L 280 132.909 280 156 L 280 179.091 282.455 181.545 L 284.909 184 312 184 L 339.091 184 341.545 181.545 L 344 179.091 344 156 L 344 132.909 341.545 130.455 L 339.091 128 312 128 L 284.909 128 282.455 130.455 M 120 156 L 120 168 136 168 L 152 168 152 156 L 152 144 136 144 L 120 144 120 156 M 296 156 L 296 168 312 168 L 328 168 328 156 L 328 144 312 144 L 296 144 296 156 M 200 208 L 200 216 216 216 L 232 216 232 208 L 232 200 216 200 L 200 200 200 208 M 376 208 L 376 216 392 216 L 408 216 408 208 L 408 200 392 200 L 376 200 376 208 M 200 232 L 200 240 216 240 L 232 240 232 232 L 232 224 216 224 L 200 224 200 232 M 376 232 L 376 240 392 240 L 408 240 408 232 L 408 224 392 224 L 376 224 376 232 M 88 344 L 88 416 168 416 L 248 416 248 344 L 248 272 168 272 L 88 272 88 344 M 264 344 L 264 416 344 416 L 424 416 424 344 L 424 272 344 272 L 264 272 264 344 M 106.455 290.455 L 104 292.909 104 316 L 104 339.091 106.455 341.545 L 108.909 344 136 344 L 163.091 344 165.545 341.545 L 168 339.091 168 316 L 168 292.909 165.545 290.455 L 163.091 288 136 288 L 108.909 288 106.455 290.455 M 282.455 290.455 L 280 292.909 280 316 L 280 339.091 282.455 341.545 L 284.909 344 312 344 L 339.091 344 341.545 341.545 L 344 339.091 344 316 L 344 292.909 341.545 290.455 L 339.091 288 312 288 L 284.909 288 282.455 290.455 M 68.504 309.250 C 67.592 312.137, 66.454 315.738, 65.975 317.250 C 65.140 319.887, 65.246 320, 68.552 320 L 72 320 72 312 C 72 307.600, 71.586 304, 71.080 304 C 70.575 304, 69.415 306.363, 68.504 309.250 M 120 316 L 120 328 136 328 L 152 328 152 316 L 152 304 136 304 L 120 304 120 316 M 296 316 L 296 328 312 328 L 328 328 328 316 L 328 304 312 304 L 296 304 296 316 M 440 312 L 440 320 443.448 320 C 446.754 320, 446.860 319.887, 446.025 317.250 C 445.546 315.738, 444.408 312.137, 443.496 309.250 C 442.585 306.363, 441.425 304, 440.920 304 C 440.414 304, 440 307.600, 440 312 M 58.504 341.250 C 57.592 344.137, 56.454 347.738, 55.975 349.250 L 55.104 352 63.552 352 L 72 352 72 344 L 72 336 66.080 336 L 60.161 336 58.504 341.250 M 440 344 L 440 352 448.448 352 L 456.896 352 456.025 349.250 C 455.546 347.738, 454.408 344.137, 453.496 341.250 L 451.839 336 445.920 336 L 440 336 440 344 M 200 368 L 200 376 216 376 L 232 376 232 368 L 232 360 216 360 L 200 360 200 368 M 376 368 L 376 376 392 376 L 408 376 408 368 L 408 360 392 360 L 376 360 376 368 M 48.504 373.250 C 47.592 376.137, 46.454 379.738, 45.975 381.250 L 45.104 384 58.552 384 L 72 384 72 376 L 72 368 61.080 368 L 50.161 368 48.504 373.250 M 440 376 L 440 384 453.448 384 L 466.896 384 466.025 381.250 C 465.546 379.738, 464.408 376.137, 463.496 373.250 L 461.839 368 450.920 368 L 440 368 440 376 M 200 392 L 200 400 216 400 L 232 400 232 392 L 232 384 216 384 L 200 384 200 392 M 376 392 L 376 400 392 400 L 408 400 408 392 L 408 384 392 384 L 376 384 376 392 M 38.504 405.250 C 37.592 408.137, 36.454 411.738, 35.975 413.250 L 35.104 416 53.552 416 L 72 416 72 408 L 72 400 56.080 400 L 40.161 400 38.504 405.250 M 440 408 L 440 416 458.448 416 L 476.896 416 476.025 413.250 C 475.546 411.738, 474.408 408.137, 473.496 405.250 L 471.839 400 455.920 400 L 440 400 440 408 M 32 440 L 32 448 256 448 L 480 448 480 440 L 480 432 256 432 L 32 432 32 440 M 32 472 L 32 480 48 480 L 64 480 64 472 L 64 464 48 464 L 32 464 32 472 M 240 472 L 240 480 256 480 L 272 480 272 472 L 272 464 256 464 L 240 464 240 472 M 448 472 L 448 480 464 480 L 480 480 480 472 L 480 464 464 464 L 448 464 448 472"
                stroke="none" fill="#f6ab13" fill-rule="evenodd" />
        </symbol>

        <symbol id="level" viewBox="0 0 512 512">
            <path
                d="M64 64c0-17.7-14.3-32-32-32S0 46.3 0 64L0 400c0 44.2 35.8 80 80 80l400 0c17.7 0 32-14.3 32-32s-14.3-32-32-32L80 416c-8.8 0-16-7.2-16-16L64 64zm406.6 86.6c12.5-12.5 12.5-32.8 0-45.3s-32.8-12.5-45.3 0L320 210.7l-57.4-57.4c-12.5-12.5-32.8-12.5-45.3 0l-112 112c-12.5 12.5-12.5 32.8 0 45.3s32.8 12.5 45.3 0L240 221.3l57.4 57.4c12.5 12.5 32.8 12.5 45.3 0l128-128z" />
        </symbol>

        <symbol id="trash" viewBox="0 0 16 16">
            <path d="M6 2H10" stroke="#323F47" stroke-width="1.5" stroke-linecap="round" stroke-linejoin="round" />
            <path
                d="M2 4H14M12.6667 4L12.1991 11.0129C12.129 12.065 12.0939 12.5911 11.8667 12.99C11.6666 13.3412 11.3648 13.6235 11.0011 13.7998C10.588 14 10.0607 14 9.00623 14H6.99377C5.93927 14 5.41202 14 4.99889 13.7998C4.63517 13.6235 4.33339 13.3412 4.13332 12.99C3.90607 12.5911 3.871 12.065 3.80086 11.0129L3.33333 4"
                stroke="#323F47" stroke-width="1.8" stroke-linecap="round" stroke-linejoin="round" fill="none" />
        </symbol>

        <symbol id="edit" viewBox="0 0 16 16">
            <path
                d="M11.333 1.99998C11.5081 1.82488 11.716 1.68599 11.9447 1.59123C12.1735 1.49647 12.4187 1.44769 12.6663 1.44769C12.914 1.44769 13.1592 1.49647 13.3879 1.59123C13.6167 1.68599 13.8246 1.82488 13.9997 1.99998C14.1748 2.17507 14.3137 2.38294 14.4084 2.61172C14.5032 2.84049 14.552 3.08569 14.552 3.33331C14.552 3.58093 14.5032 3.82613 14.4084 4.05491C14.3137 4.28368 14.1748 4.49155 13.9997 4.66664L4.99967 13.6666L1.33301 14.6666L2.33301 11L11.333 1.99998Z"
                stroke="#323F47" stroke-width="1.8" stroke-linecap="round" stroke-linejoin="round" fill="none" />
        </symbol>
        <!-- ??????? -->

        <symbol id="settings" viewBox="0 0 16 16">
            <path
                d="M8 10C9.10457 10 10 9.10457 10 8C10 6.89543 9.10457 6 8 6C6.89543 6 6 6.89543 6 8C6 9.10457 6.89543 10 8 10Z"
                stroke-width="1.5" stroke-linecap="round" stroke-linejoin="round" fill="none" />
            <path
                d="M12.9337 10C12.8449 10.2011 12.8184 10.4242 12.8577 10.6404C12.8969 10.8567 13 11.0562 13.1537 11.2134L13.1937 11.2534C13.3176 11.3772 13.416 11.5242 13.4831 11.6861C13.5502 11.848 13.5847 12.0215 13.5847 12.1967C13.5847 12.3719 13.5502 12.5454 13.4831 12.7073C13.416 12.8691 13.3176 13.0162 13.1937 13.14C13.0698 13.264 12.9228 13.3623 12.7609 13.4294C12.599 13.4965 12.4255 13.5311 12.2503 13.5311C12.0751 13.5311 11.9016 13.4965 11.7397 13.4294C11.5779 13.3623 11.4308 13.264 11.307 13.14L11.267 13.1C11.1099 12.9463 10.9103 12.8432 10.6941 12.804C10.4778 12.7648 10.2547 12.7913 10.0537 12.88C9.85648 12.9645 9.68832 13.1049 9.56986 13.2837C9.45141 13.4626 9.38785 13.6722 9.38699 13.8867V14C9.38699 14.3536 9.24652 14.6928 8.99647 14.9428C8.74642 15.1929 8.40728 15.3334 8.05366 15.3334C7.70004 15.3334 7.3609 15.1929 7.11085 14.9428C6.8608 14.6928 6.72033 14.3536 6.72033 14V13.94C6.71516 13.7194 6.64374 13.5054 6.51533 13.3258C6.38693 13.1463 6.20748 13.0095 6.00033 12.9334C5.79925 12.8446 5.5762 12.8181 5.35993 12.8574C5.14367 12.8966 4.94411 12.9997 4.78699 13.1534L4.74699 13.1934C4.62316 13.3173 4.47611 13.4157 4.31425 13.4828C4.15238 13.5499 3.97888 13.5844 3.80366 13.5844C3.62844 13.5844 3.45494 13.5499 3.29307 13.4828C3.13121 13.4157 2.98416 13.3173 2.86033 13.1934C2.73636 13.0695 2.63801 12.9225 2.57091 12.7606C2.50381 12.5987 2.46928 12.4252 2.46928 12.25C2.46928 12.0748 2.50381 11.9013 2.57091 11.7394C2.63801 11.5776 2.73636 11.4305 2.86033 11.3067L2.90033 11.2667C3.05402 11.1096 3.15712 10.91 3.19633 10.6937C3.23554 10.4775 3.20907 10.2544 3.12033 10.0534C3.03582 9.85618 2.8955 9.68801 2.71664 9.56956C2.53778 9.45111 2.32818 9.38754 2.11366 9.38669H2.00033C1.6467 9.38669 1.30757 9.24621 1.05752 8.99616C0.807468 8.74611 0.666992 8.40698 0.666992 8.05335C0.666992 7.69973 0.807468 7.36059 1.05752 7.11055C1.30757 6.8605 1.6467 6.72002 2.00033 6.72002H2.06033C2.28099 6.71486 2.495 6.64343 2.67453 6.51503C2.85405 6.38662 2.9908 6.20718 3.06699 6.00002C3.15574 5.79894 3.18221 5.57589 3.143 5.35963C3.10378 5.14337 3.00068 4.94381 2.84699 4.78669L2.80699 4.74669C2.68302 4.62286 2.58468 4.47581 2.51758 4.31394C2.45048 4.15208 2.41594 3.97857 2.41594 3.80335C2.41594 3.62813 2.45048 3.45463 2.51758 3.29277C2.58468 3.1309 2.68302 2.98385 2.80699 2.86002C2.93082 2.73605 3.07787 2.63771 3.23974 2.57061C3.4016 2.50351 3.57511 2.46897 3.75033 2.46897C3.92555 2.46897 4.09905 2.50351 4.26091 2.57061C4.42278 2.63771 4.56983 2.73605 4.69366 2.86002L4.73366 2.90002C4.89078 3.05371 5.09034 3.15681 5.3066 3.19602C5.52286 3.23524 5.74592 3.20876 5.94699 3.12002H6.00033C6.19751 3.03551 6.36567 2.89519 6.48412 2.71633C6.60257 2.53747 6.66614 2.32788 6.66699 2.11335V2.00002C6.66699 1.6464 6.80747 1.30726 7.05752 1.05721C7.30757 0.807163 7.6467 0.666687 8.00033 0.666687C8.35395 0.666687 8.69309 0.807163 8.94314 1.05721C9.19318 1.30726 9.33366 1.6464 9.33366 2.00002V2.06002C9.33452 2.27454 9.39808 2.48414 9.51653 2.663C9.63498 2.84186 9.80315 2.98218 10.0003 3.06669C10.2014 3.15543 10.4245 3.1819 10.6407 3.14269C10.857 3.10348 11.0565 3.00038 11.2137 2.84669L11.2537 2.80669C11.3775 2.68272 11.5245 2.58437 11.6864 2.51727C11.8483 2.45018 12.0218 2.41564 12.197 2.41564C12.3722 2.41564 12.5457 2.45018 12.7076 2.51727C12.8694 2.58437 13.0165 2.68272 13.1403 2.80669C13.2643 2.93052 13.3626 3.07757 13.4297 3.23943C13.4968 3.4013 13.5314 3.5748 13.5314 3.75002C13.5314 3.92524 13.4968 4.09874 13.4297 4.26061C13.3626 4.42247 13.2643 4.56952 13.1403 4.69335L13.1003 4.73335C12.9466 4.89047 12.8435 5.09003 12.8043 5.30629C12.7651 5.52256 12.7916 5.74561 12.8803 5.94669V6.00002C12.9648 6.1972 13.1052 6.36537 13.284 6.48382C13.4629 6.60227 13.6725 6.66583 13.887 6.66669H14.0003C14.3539 6.66669 14.6931 6.80716 14.9431 7.05721C15.1932 7.30726 15.3337 7.6464 15.3337 8.00002C15.3337 8.35364 15.1932 8.69278 14.9431 8.94283C14.6931 9.19288 14.3539 9.33335 14.0003 9.33335H13.9403C13.7258 9.33421 13.5162 9.39778 13.3374 9.51623C13.1585 9.63468 13.0182 9.80284 12.9337 10Z"
                stroke-width="1.5" stroke-linecap="round" stroke-linejoin="round" fill="none" />
        </symbol>

        <symbol id="upload" viewBox="0 0 20 20">
            <path
                d="M17.5 12.5V15.8333C17.5 16.2754 17.3244 16.6993 17.0118 17.0118C16.6993 17.3244 16.2754 17.5 15.8333 17.5H4.16667C3.72464 17.5 3.30072 17.3244 2.98816 17.0118C2.67559 16.6993 2.5 16.2754 2.5 15.8333V12.5"
                stroke="#2F2F2F" stroke-width="1.8" stroke-linecap="round" stroke-linejoin="round" fill="none" />
            <path d="M14.1663 6.66667L9.99967 2.5L5.83301 6.66667" stroke="#2F2F2F" stroke-width="1.8"
                stroke-linecap="round" stroke-linejoin="round" fill="none" />
            <path d="M10 2.5V12.5" stroke="#2F2F2F" stroke-width="1.8" stroke-linecap="round" stroke-linejoin="round" />
        </symbol>

        <symbol id="icon-england" viewBox="0 0 32 32">
            <path fill="#1e50a0" style="fill: var(--color1, #1e50a0)" d="M2.222 7.556h27.556v16.889h-27.556z"></path>
            <path fill="#fff" style="fill: var(--color2, #fff)"
                d="M17.778 12.825v1.397h4.525l7.475-4.582v-2.085h-3.402z">
            </path>
            <path fill="#d22f27" style="fill: var(--color3, #d22f27)"
                d="M29.778 7.556h-1.701l-10.299 6.312v0.354h1.548l10.452-6.406z"></path>
            <path fill="#fff" style="fill: var(--color2, #fff)"
                d="M26.376 24.444h3.401v-2.085l-7.475-4.581h-4.525v1.397z">
            </path>
            <path fill="#d22f27" style="fill: var(--color3, #d22f27)"
                d="M29.778 24.444v-1.043l-9.176-5.624h-2.128l10.877 6.667z"></path>
            <path fill="#fff" style="fill: var(--color2, #fff)"
                d="M14.222 19.175v-1.397h-4.525l-7.475 4.582v2.085h3.402z">
            </path>
            <path fill="#d22f27" style="fill: var(--color3, #d22f27)"
                d="M2.222 24.444h1.701l10.299-6.312v-0.354h-1.548l-10.452 6.406z"></path>
            <path fill="#fff" style="fill: var(--color2, #fff)" d="M5.624 7.556h-3.401v2.085l7.475 4.581h4.525v-1.397z">
            </path>
            <path fill="#d22f27" style="fill: var(--color3, #d22f27)"
                d="M2.222 7.556v1.043l9.176 5.624h2.127l-10.877-6.667z">
            </path>
            <path fill="#fff" style="fill: var(--color2, #fff)" d="M2.222 13.778h27.556v4.444h-27.556z"></path>
            <path fill="#fff" style="fill: var(--color2, #fff)" d="M13.778 7.556h4.444v16.889h-4.444z"></path>
            <path fill="#d22f27" style="fill: var(--color3, #d22f27)" d="M2.222 14.667h27.556v2.667h-27.556z"></path>
            <path fill="#d22f27" style="fill: var(--color3, #d22f27)" d="M14.667 7.556h2.667v16.889h-2.667z"></path>
            <path fill="none" stroke="#000" style="stroke: var(--color4, #000)" stroke-linejoin="round"
                stroke-linecap="round" stroke-miterlimit="4" stroke-width="0.8889"
                d="M2.222 7.556h27.556v16.889h-27.556z"></path>
        </symbol>

        <symbol id="icon-ukraine" viewBox="0 0 43 32">
            <path fill="#ffd500" style="fill: var(--color5, #ffd500)" d="M0 0h42.667v32h-42.667z"></path>
            <path fill="#005bbb" style="fill: var(--color6, #005bbb)" d="M0 0h42.667v16h-42.667z"></path>
        </symbol>

        <symbol id="google-icon" viewBox="0 0 24 24">
            <path
                d="M22.56 12.25c0-.78-.07-1.53-.2-2.25H12v4.26h5.92c-.26 1.37-1.04 2.53-2.21 3.31v2.77h3.57c2.08-1.92 3.28-4.74 3.28-8.09z"
                fill="#4285F4" />
            <path
                d="M12 23c2.97 0 5.46-.98 7.28-2.66l-3.57-2.77c-.98.66-2.23 1.06-3.71 1.06-2.86 0-5.29-1.93-6.16-4.53H2.18v2.84C3.99 20.53 7.7 23 12 23z"
                fill="#34A853" />
            <path
                d="M5.84 14.09c-.22-.66-.35-1.36-.35-2.09s.13-1.43.35-2.09V7.07H2.18C1.43 8.55 1 10.22 1 12s.43 3.45 1.18 4.93l2.85-2.22.81-.62z"
                fill="#FBBC05" />
            <path
                d="M12 5.38c1.62 0 3.06.56 4.21 1.64l3.15-3.15C17.45 2.09 14.97 1 12 1 7.7 1 3.99 3.47 2.18 7.07l3.66 2.84c.87-2.6 3.3-4.53 6.16-4.53z"
                fill="#EA4335" />
            <path d="M1 1h22v22H1z" fill="none" />
        </symbol>

    </defs>
</svg>