<svg xmlns="http://www.w3.org/2000/svg" xmlns:xlink="http://www.w3.org/1999/xlink" aria-hidden="true" role="img"
    class="iconify iconify--logos" width="35.93" height="32" preserveAspectRatio="xMidYMid meet" viewBox="0 0 256 228">
    <path fill="#00D8FF"
        d="M210.483 73.824a171.49 171.49 0 0 0-8.24-2.597c.465-1.9.893-3.777 1.273-5.621c6.238-30.281 2.16-54.676-11.769-62.708c-13.355-7.7-35.196.329-57.254 19.526a171.23 171.23 0 0 0-6.375 5.848a155.866 155.866 0 0 0-4.241-3.917C100.759 3.829 77.587-4.822 63.673 3.233C50.33 10.957 46.379 33.89 51.995 62.588a170.974 170.974 0 0 0 1.892 8.48c-3.28.932-6.445 1.924-9.474 2.98C17.309 83.498 0 98.307 0 113.668c0 15.865 18.582 31.778 46.812 41.427a145.52 145.52 0 0 0 6.921 2.165a167.467 167.467 0 0 0-2.01 9.138c-5.354 28.2-1.173 50.591 12.134 58.266c13.744 7.926 36.812-.22 59.273-19.855a145.567 145.567 0 0 0 5.342-4.923a168.064 168.064 0 0 0 6.92 6.314c21.758 18.722 43.246 26.282 56.54 18.586c13.731-7.949 18.194-32.003 12.4-61.268a145.016 145.016 0 0 0-1.535-6.842c1.62-.48 3.21-.974 4.76-1.488c29.348-9.723 48.443-25.443 48.443-41.52c0-15.417-17.868-30.326-45.517-39.844Zm-6.365 70.984c-1.4.463-2.836.91-4.3 1.345c-3.24-10.257-7.612-21.163-12.963-32.432c5.106-11 9.31-21.767 12.459-31.957c2.619.758 5.16 1.557 7.61 2.4c23.69 8.156 38.14 20.213 38.14 29.504c0 9.896-15.606 22.743-40.946 31.14Zm-10.514 20.834c2.562 12.94 2.927 24.64 1.23 33.787c-1.524 8.219-4.59 13.698-8.382 15.893c-8.067 4.67-25.32-1.4-43.927-17.412a156.726 156.726 0 0 1-6.437-5.87c7.214-7.889 14.423-17.06 21.459-27.246c12.376-1.098 24.068-2.894 34.671-5.345a134.17 134.17 0 0 1 1.386 6.193ZM87.276 214.515c-7.882 2.783-14.16 2.863-17.955.675c-8.075-4.657-11.432-22.636-6.853-46.752a156.923 156.923 0 0 1 1.869-8.499c10.486 2.32 22.093 3.988 34.498 4.994c7.084 9.967 14.501 19.128 21.976 27.15a134.668 134.668 0 0 1-4.877 4.492c-9.933 8.682-19.886 14.842-28.658 17.94ZM50.35 144.747c-12.483-4.267-22.792-9.812-29.858-15.863c-6.35-5.437-9.555-10.836-9.555-15.216c0-9.322 13.897-21.212 37.076-29.293c2.813-.98 5.757-1.905 8.812-2.773c3.204 10.42 7.406 21.315 12.477 32.332c-5.137 11.18-9.399 22.249-12.634 32.792a134.718 134.718 0 0 1-6.318-1.979Zm12.378-84.26c-4.811-24.587-1.616-43.134 6.425-47.789c8.564-4.958 27.502 2.111 47.463 19.835a144.318 144.318 0 0 1 3.841 3.545c-7.438 7.987-14.787 17.08-21.808 26.988c-12.04 1.116-23.565 2.908-34.161 5.309a160.342 160.342 0 0 1-1.76-7.887Zm110.427 27.268a347.8 347.8 0 0 0-7.785-12.803c8.168 1.033 15.994 2.404 23.343 4.08c-2.206 7.072-4.956 14.465-8.193 22.045a381.151 381.151 0 0 0-7.365-13.322Zm-45.032-43.861c5.044 5.465 10.096 11.566 15.065 18.186a322.04 322.04 0 0 0-30.257-.006c4.974-6.559 10.069-12.652 15.192-18.18ZM82.802 87.83a323.167 323.167 0 0 0-7.227 13.238c-3.184-7.553-5.909-14.98-8.134-22.152c7.304-1.634 15.093-2.97 23.209-3.984a321.524 321.524 0 0 0-7.848 12.897Zm8.081 65.352c-8.385-.936-16.291-2.203-23.593-3.793c2.26-7.3 5.045-14.885 8.298-22.6a321.187 321.187 0 0 0 7.257 13.246c2.594 4.48 5.28 8.868 8.038 13.147Zm37.542 31.03c-5.184-5.592-10.354-11.779-15.403-18.433c4.902.192 9.899.29 14.978.29c5.218 0 10.376-.117 15.453-.343c-4.985 6.774-10.018 12.97-15.028 18.486Zm52.198-57.817c3.422 7.8 6.306 15.345 8.596 22.52c-7.422 1.694-15.436 3.058-23.88 4.071a382.417 382.417 0 0 0 7.859-13.026a347.403 347.403 0 0 0 7.425-13.565Zm-16.898 8.101a358.557 358.557 0 0 1-12.281 19.815a329.4 329.4 0 0 1-23.444.823c-7.967 0-15.716-.248-23.178-.732a310.202 310.202 0 0 1-12.513-19.846h.001a307.41 307.41 0 0 1-10.923-20.627a310.278 310.278 0 0 1 10.89-20.637l-.001.001a307.318 307.318 0 0 1 12.413-19.761c7.613-.576 15.42-.876 23.31-.876H128c7.926 0 15.743.303 23.354.883a329.357 329.357 0 0 1 12.335 19.695a358.489 358.489 0 0 1 11.036 20.54a329.472 329.472 0 0 1-11 20.722Zm22.56-122.124c8.572 4.944 11.906 24.881 6.52 51.026c-.344 1.668-.73 3.367-1.15 5.09c-10.622-2.452-22.155-4.275-34.23-5.408c-7.034-10.017-14.323-19.124-21.64-27.008a160.789 160.789 0 0 1 5.888-5.4c18.9-16.447 36.564-22.941 44.612-18.3ZM128 90.808c12.625 0 22.86 10.235 22.86 22.86s-10.235 22.86-22.86 22.86s-22.86-10.235-22.86-22.86s10.235-22.86 22.86-22.86Z">
    </path>
    <defs>
        <symbol id="user" viewBox="0 0 24 24" fill="none" stroke="currentColor" stroke-width="1.5"
            stroke-linecap="round" stroke-linejoin="round">
            <path d="M15.75 6a3.75 3.75 0 1 1-7.5 0 3.75 3.75 0 0 1 7.5 0Z" />
            <path
                d="M4.501 20.118a7.5 7.5 0 0 1 14.998 0A17.933 17.933 0 0 1 12 21.75c-2.676 0-5.216-.584-7.499-1.632Z" />
        </symbol>

        <symbol id="logOut" viewBox="0 0 16 16">
            <path
                d="M6 14H3.33333C2.97971 14 2.64057 13.8595 2.39052 13.6095C2.14048 13.3594 2 13.0203 2 12.6667V3.33333C2 2.97971 2.14048 2.64057 2.39052 2.39052C2.64057 2.14048 2.97971 2 3.33333 2H6"
                stroke-width="1.5" stroke-linecap="round" stroke-linejoin="round" fill="none" />
            <path d="M10.667 11.3334L14.0003 8.00002L10.667 4.66669" stroke-width="1.5" stroke-linecap="round"
                stroke-linejoin="round" fill="none" />
            <path d="M14 8H6" stroke-width="1.5" stroke-linecap="round" stroke-linejoin="round" />
        </symbol>

        <symbol id="menu-open" viewBox="0 0 24 24" fill="none" stroke="currentColor" stroke-width="2"
            stroke-linecap="round" stroke-linejoin="round">
            <path d="M4 6h16M4 12h16m-7 6h7" />
        </symbol>

        <symbol id="menu-close" viewBox="0 0 24 24" fill="none" stroke="currentColor" stroke-width="2"
            stroke-linecap="round" stroke-linejoin="round">
            <path d="M6 18L18 6M6 6l12 12" />
        </symbol>

        <symbol id="eye" viewBox="0 0 20 20">
            <path
                d="M0.833008 9.99998C0.833008 9.99998 4.16634 3.33331 9.99967 3.33331C15.833 3.33331 19.1663 9.99998 19.1663 9.99998C19.1663 9.99998 15.833 16.6666 9.99967 16.6666C4.16634 16.6666 0.833008 9.99998 0.833008 9.99998Z"
                stroke="#2F2F2F" stroke-width="1.8" stroke-linecap="round" stroke-linejoin="round" fill="none" />
            <path
                d="M10 12.5C11.3807 12.5 12.5 11.3807 12.5 10C12.5 8.61929 11.3807 7.5 10 7.5C8.61929 7.5 7.5 8.61929 7.5 10C7.5 11.3807 8.61929 12.5 10 12.5Z"
                stroke="#2F2F2F" stroke-width="1.8" fill="none" />
        </symbol>

        <symbol id="eyeOff" viewBox="0 0 20 20">
            <path
                d="M14.9497 14.9499C13.5252 16.0358 11.7906 16.6373 9.99968 16.6666C4.16634 16.6666 0.833008 9.99994 0.833008 9.99994C1.86958 8.06819 3.30729 6.38045 5.04967 5.04994M8.24968 3.53327C8.82329 3.39901 9.41056 3.33189 9.99968 3.33327C15.833 3.33327 19.1663 9.99994 19.1663 9.99994C18.6605 10.9463 18.0572 11.8372 17.3663 12.6583M11.7663 11.7666C11.5375 12.0122 11.2615 12.2092 10.9548 12.3459C10.6481 12.4825 10.3171 12.556 9.98142 12.5619C9.64574 12.5678 9.31231 12.5061 9.00102 12.3803C8.68972 12.2546 8.40694 12.0675 8.16955 11.8301C7.93215 11.5927 7.745 11.3099 7.61927 10.9986C7.49353 10.6873 7.43178 10.3539 7.4377 10.0182C7.44363 9.68252 7.5171 9.35148 7.65374 9.04481C7.79038 8.73815 7.98739 8.46215 8.23301 8.23327"
                stroke="#2F2F2F" stroke-width="1.8" stroke-linecap="round" stroke-linejoin="round" fill="none" />
            <path d="M0.833008 0.833374L19.1663 19.1667" stroke="#2F2F2F" stroke-width="1.8" stroke-linecap="round"
                stroke-linejoin="round" />
        </symbol>

        <symbol id="coin" viewBox="0 0 256 256">
            <path
                d="M184,89.57V84c0-25.08-37.83-44-88-44S8,58.92,8,84v40c0,20.89,26.25,37.49,64,42.46V172c0,25.08,37.83,44,88,44s88-18.92,88-44V132C248,111.3,222.58,94.68,184,89.57ZM232,132c0,13.22-30.79,28-72,28-3.73,0-7.43-.13-11.08-.37C170.49,151.77,184,139,184,124V105.74C213.87,110.19,232,122.27,232,132ZM72,150.25V126.46A183.74,183.74,0,0,0,96,128a183.74,183.74,0,0,0,24-1.54v23.79A163,163,0,0,1,96,152,163,163,0,0,1,72,150.25Zm96-40.32V124c0,8.39-12.41,17.4-32,22.87V123.5C148.91,120.37,159.84,115.71,168,109.93ZM96,56c41.21,0,72,14.78,72,28s-30.79,28-72,28S24,97.22,24,84,54.79,56,96,56ZM24,124V109.93c8.16,5.78,19.09,10.44,32,13.57v23.37C36.41,141.4,24,132.39,24,124Zm64,48v-4.17c2.63.1,5.29.17,8,.17,3.88,0,7.67-.13,11.39-.35A121.92,121.92,0,0,0,120,171.41v23.46C100.41,189.4,88,180.39,88,172Zm48,26.25V174.4a179.48,179.48,0,0,0,24,1.6,183.74,183.74,0,0,0,24-1.54v23.79a165.45,165.45,0,0,1-48,0Zm64-3.38V171.5c12.91-3.13,23.84-7.79,32-13.57V172C232,180.39,219.59,189.4,200,194.87Z">
            </path>
        </symbol>

        <symbol id="plus" viewBox="0 0 32 32">
            <path stroke-linejoin="round" stroke-linecap="round" stroke-miterlimit="4" stroke-width="2.6667"
                d="M16 6.667v18.667M6.667 16h18.667"></path>
        </symbol>

        <symbol id="minus" viewBox="0 0 203 32">
            <path stroke-linejoin="round" stroke-linecap="round" stroke-miterlimit="4" stroke-width="19.2"
                d="M19.424 16h163.808"></path>
        </symbol>

        <symbol id="clock" viewBox="0 0 256 256">
            <path
                d="M128,24A104,104,0,1,0,232,128,104.11,104.11,0,0,0,128,24Zm0,192a88,88,0,1,1,88-88A88.1,88.1,0,0,1,128,216Zm64-88a8,8,0,0,1-8,8H128a8,8,0,0,1-8-8V72a8,8,0,0,1,16,0v48h48A8,8,0,0,1,192,128Z">
            </path>
        </symbol>

        <symbol id="info" viewBox="0 0 256 256">
            <path
                d="M128,24A104,104,0,1,0,232,128,104.11,104.11,0,0,0,128,24Zm0,192a88,88,0,1,1,88-88A88.1,88.1,0,0,1,128,216Zm16-40a8,8,0,0,1-8,8,16,16,0,0,1-16-16V128a8,8,0,0,1,0-16,16,16,0,0,1,16,16v40A8,8,0,0,1,144,176ZM112,84a12,12,0,1,1,12,12A12,12,0,0,1,112,84Z">
            </path>
        </symbol>

        <symbol id="copy" viewBox="0 0 448 512">
            <path
                d="M208 0L332.1 0c12.7 0 24.9 5.1 33.9 14.1l67.9 67.9c9 9 14.1 21.2 14.1 33.9L448 336c0 26.5-21.5 48-48 48l-192 0c-26.5 0-48-21.5-48-48l0-288c0-26.5 21.5-48 48-48zM48 128l80 0 0 64-64 0 0 256 192 0 0-32 64 0 0 48c0 26.5-21.5 48-48 48L48 512c-26.5 0-48-21.5-48-48L0 176c0-26.5 21.5-48 48-48z">
            </path>
        </symbol>

        <symbol id="phone" viewBox="0 0 512 512">
            <path
                d="M164.9 24.6c-7.7-18.6-28-28.5-47.4-23.2l-88 24C12.1 30.2 0 46 0 64C0 311.4 200.6 512 448 512c18 0 33.8-12.1 38.6-29.5l24-88c5.3-19.4-4.6-39.7-23.2-47.4l-96-40c-16.3-6.8-35.2-2.1-46.3 11.6L304.7 368C234.3 334.7 177.3 277.7 144 207.3L193.3 167c13.7-11.2 18.4-30 11.6-46.3l-40-96z">
            </path>
        </symbol>

        <symbol id="box" viewBox="0 0 512 512">
            <path
                d="M 106.323 18.250 C 105.209 19.488, 97.030 38.725, 88.147 61 L 71.997 101.500 71.999 194.750 L 72 288 66.174 288 C 61.412 288, 59.972 288.411, 58.283 290.250 C 56.920 291.734, 49.371 314.452, 36.103 357 L 15.990 421.500 15.995 456.576 L 16 491.651 18.314 493.826 C 20.575 495.949, 21.270 496, 48.140 496 C 82.604 496, 80 497.497, 80 477.686 L 80 464 152 464 L 224 464 224 477.826 C 224 497.476, 221.390 496, 256.140 496 C 290.604 496, 288 497.497, 288 477.686 L 288 464 360 464 L 432 464 432 477.826 C 432 497.476, 429.390 496, 464.140 496 C 491.604 496, 491.655 495.996, 493.826 493.686 C 495.972 491.401, 496 490.925, 496.005 456.436 L 496.010 421.500 475.897 357 C 462.629 314.452, 455.080 291.734, 453.717 290.250 C 452.028 288.411, 450.588 288, 445.826 288 L 440 288 440.001 194.750 L 440.003 101.500 423.853 61 C 414.970 38.725, 406.791 19.488, 405.677 18.250 L 403.651 16 256 16 L 108.349 16 106.323 18.250 M 113.063 42.750 C 110.715 48.663, 108.567 54.063, 108.290 54.750 C 107.890 55.743, 122.205 56, 177.893 56 L 248 56 248 44 L 248 32 182.666 32 L 117.332 32 113.063 42.750 M 264 44 L 264 56 334.107 56 C 389.795 56, 404.110 55.743, 403.710 54.750 C 403.433 54.063, 401.285 48.663, 398.937 42.750 L 394.668 32 329.334 32 L 264 32 264 44 M 97.063 82.750 C 94.715 88.662, 92.567 94.063, 92.290 94.750 C 91.889 95.744, 107.805 96, 169.893 96 L 248 96 248 84 L 248 72 174.666 72 L 101.332 72 97.063 82.750 M 264 84 L 264 96 342.107 96 C 404.195 96, 420.111 95.744, 419.710 94.750 C 419.433 94.063, 417.285 88.662, 414.937 82.750 L 410.668 72 337.334 72 L 264 72 264 84 M 88 184 L 88 256 168 256 L 248 256 248 184 L 248 112 168 112 L 88 112 88 184 M 264 184 L 264 256 344 256 L 424 256 424 184 L 424 112 344 112 L 264 112 264 184 M 106.455 130.455 L 104 132.909 104 156 L 104 179.091 106.455 181.545 L 108.909 184 136 184 L 163.091 184 165.545 181.545 L 168 179.091 168 156 L 168 132.909 165.545 130.455 L 163.091 128 136 128 L 108.909 128 106.455 130.455 M 282.455 130.455 L 280 132.909 280 156 L 280 179.091 282.455 181.545 L 284.909 184 312 184 L 339.091 184 341.545 181.545 L 344 179.091 344 156 L 344 132.909 341.545 130.455 L 339.091 128 312 128 L 284.909 128 282.455 130.455 M 120 156 L 120 168 136 168 L 152 168 152 156 L 152 144 136 144 L 120 144 120 156 M 296 156 L 296 168 312 168 L 328 168 328 156 L 328 144 312 144 L 296 144 296 156 M 200 208 L 200 216 216 216 L 232 216 232 208 L 232 200 216 200 L 200 200 200 208 M 376 208 L 376 216 392 216 L 408 216 408 208 L 408 200 392 200 L 376 200 376 208 M 200 232 L 200 240 216 240 L 232 240 232 232 L 232 224 216 224 L 200 224 200 232 M 376 232 L 376 240 392 240 L 408 240 408 232 L 408 224 392 224 L 376 224 376 232 M 88 344 L 88 416 168 416 L 248 416 248 344 L 248 272 168 272 L 88 272 88 344 M 264 344 L 264 416 344 416 L 424 416 424 344 L 424 272 344 272 L 264 272 264 344 M 106.455 290.455 L 104 292.909 104 316 L 104 339.091 106.455 341.545 L 108.909 344 136 344 L 163.091 344 165.545 341.545 L 168 339.091 168 316 L 168 292.909 165.545 290.455 L 163.091 288 136 288 L 108.909 288 106.455 290.455 M 282.455 290.455 L 280 292.909 280 316 L 280 339.091 282.455 341.545 L 284.909 344 312 344 L 339.091 344 341.545 341.545 L 344 339.091 344 316 L 344 292.909 341.545 290.455 L 339.091 288 312 288 L 284.909 288 282.455 290.455 M 68.504 309.250 C 67.592 312.137, 66.454 315.738, 65.975 317.250 C 65.140 319.887, 65.246 320, 68.552 320 L 72 320 72 312 C 72 307.600, 71.586 304, 71.080 304 C 70.575 304, 69.415 306.363, 68.504 309.250 M 120 316 L 120 328 136 328 L 152 328 152 316 L 152 304 136 304 L 120 304 120 316 M 296 316 L 296 328 312 328 L 328 328 328 316 L 328 304 312 304 L 296 304 296 316 M 440 312 L 440 320 443.448 320 C 446.754 320, 446.860 319.887, 446.025 317.250 C 445.546 315.738, 444.408 312.137, 443.496 309.250 C 442.585 306.363, 441.425 304, 440.920 304 C 440.414 304, 440 307.600, 440 312 M 58.504 341.250 C 57.592 344.137, 56.454 347.738, 55.975 349.250 L 55.104 352 63.552 352 L 72 352 72 344 L 72 336 66.080 336 L 60.161 336 58.504 341.250 M 440 344 L 440 352 448.448 352 L 456.896 352 456.025 349.250 C 455.546 347.738, 454.408 344.137, 453.496 341.250 L 451.839 336 445.920 336 L 440 336 440 344 M 200 368 L 200 376 216 376 L 232 376 232 368 L 232 360 216 360 L 200 360 200 368 M 376 368 L 376 376 392 376 L 408 376 408 368 L 408 360 392 360 L 376 360 376 368 M 48.504 373.250 C 47.592 376.137, 46.454 379.738, 45.975 381.250 L 45.104 384 58.552 384 L 72 384 72 376 L 72 368 61.080 368 L 50.161 368 48.504 373.250 M 440 376 L 440 384 453.448 384 L 466.896 384 466.025 381.250 C 465.546 379.738, 464.408 376.137, 463.496 373.250 L 461.839 368 450.920 368 L 440 368 440 376 M 200 392 L 200 400 216 400 L 232 400 232 392 L 232 384 216 384 L 200 384 200 392 M 376 392 L 376 400 392 400 L 408 400 408 392 L 408 384 392 384 L 376 384 376 392 M 38.504 405.250 C 37.592 408.137, 36.454 411.738, 35.975 413.250 L 35.104 416 53.552 416 L 72 416 72 408 L 72 400 56.080 400 L 40.161 400 38.504 405.250 M 440 408 L 440 416 458.448 416 L 476.896 416 476.025 413.250 C 475.546 411.738, 474.408 408.137, 473.496 405.250 L 471.839 400 455.920 400 L 440 400 440 408 M 32 440 L 32 448 256 448 L 480 448 480 440 L 480 432 256 432 L 32 432 32 440 M 32 472 L 32 480 48 480 L 64 480 64 472 L 64 464 48 464 L 32 464 32 472 M 240 472 L 240 480 256 480 L 272 480 272 472 L 272 464 256 464 L 240 464 240 472 M 448 472 L 448 480 464 480 L 480 480 480 472 L 480 464 464 464 L 448 464 448 472"
                stroke="none" fill="#040404" fill-rule="evenodd" />
            <path
                d="M 113.063 42.750 C 110.715 48.663, 108.567 54.063, 108.290 54.750 C 107.890 55.743, 122.205 56, 177.893 56 L 248 56 248 44 L 248 32 182.666 32 L 117.332 32 113.063 42.750 M 264 44 L 264 56 334.107 56 C 389.795 56, 404.110 55.743, 403.710 54.750 C 403.433 54.063, 401.285 48.663, 398.937 42.750 L 394.668 32 329.334 32 L 264 32 264 44 M 97.063 82.750 C 94.715 88.662, 92.567 94.063, 92.290 94.750 C 91.889 95.744, 107.805 96, 169.893 96 L 248 96 248 84 L 248 72 174.666 72 L 101.332 72 97.063 82.750 M 264 84 L 264 96 342.107 96 C 404.195 96, 420.111 95.744, 419.710 94.750 C 419.433 94.063, 417.285 88.662, 414.937 82.750 L 410.668 72 337.334 72 L 264 72 264 84 M 88 184 L 88 256 168 256 L 248 256 248 184 L 248 112 168 112 L 88 112 88 184 M 264 184 L 264 256 344 256 L 424 256 424 184 L 424 112 344 112 L 264 112 264 184 M 106.455 130.455 L 104 132.909 104 156 L 104 179.091 106.455 181.545 L 108.909 184 136 184 L 163.091 184 165.545 181.545 L 168 179.091 168 156 L 168 132.909 165.545 130.455 L 163.091 128 136 128 L 108.909 128 106.455 130.455 M 282.455 130.455 L 280 132.909 280 156 L 280 179.091 282.455 181.545 L 284.909 184 312 184 L 339.091 184 341.545 181.545 L 344 179.091 344 156 L 344 132.909 341.545 130.455 L 339.091 128 312 128 L 284.909 128 282.455 130.455 M 120 156 L 120 168 136 168 L 152 168 152 156 L 152 144 136 144 L 120 144 120 156 M 296 156 L 296 168 312 168 L 328 168 328 156 L 328 144 312 144 L 296 144 296 156 M 200 208 L 200 216 216 216 L 232 216 232 208 L 232 200 216 200 L 200 200 200 208 M 376 208 L 376 216 392 216 L 408 216 408 208 L 408 200 392 200 L 376 200 376 208 M 200 232 L 200 240 216 240 L 232 240 232 232 L 232 224 216 224 L 200 224 200 232 M 376 232 L 376 240 392 240 L 408 240 408 232 L 408 224 392 224 L 376 224 376 232 M 88 344 L 88 416 168 416 L 248 416 248 344 L 248 272 168 272 L 88 272 88 344 M 264 344 L 264 416 344 416 L 424 416 424 344 L 424 272 344 272 L 264 272 264 344 M 106.455 290.455 L 104 292.909 104 316 L 104 339.091 106.455 341.545 L 108.909 344 136 344 L 163.091 344 165.545 341.545 L 168 339.091 168 316 L 168 292.909 165.545 290.455 L 163.091 288 136 288 L 108.909 288 106.455 290.455 M 282.455 290.455 L 280 292.909 280 316 L 280 339.091 282.455 341.545 L 284.909 344 312 344 L 339.091 344 341.545 341.545 L 344 339.091 344 316 L 344 292.909 341.545 290.455 L 339.091 288 312 288 L 284.909 288 282.455 290.455 M 68.504 309.250 C 67.592 312.137, 66.454 315.738, 65.975 317.250 C 65.140 319.887, 65.246 320, 68.552 320 L 72 320 72 312 C 72 307.600, 71.586 304, 71.080 304 C 70.575 304, 69.415 306.363, 68.504 309.250 M 120 316 L 120 328 136 328 L 152 328 152 316 L 152 304 136 304 L 120 304 120 316 M 296 316 L 296 328 312 328 L 328 328 328 316 L 328 304 312 304 L 296 304 296 316 M 440 312 L 440 320 443.448 320 C 446.754 320, 446.860 319.887, 446.025 317.250 C 445.546 315.738, 444.408 312.137, 443.496 309.250 C 442.585 306.363, 441.425 304, 440.920 304 C 440.414 304, 440 307.600, 440 312 M 58.504 341.250 C 57.592 344.137, 56.454 347.738, 55.975 349.250 L 55.104 352 63.552 352 L 72 352 72 344 L 72 336 66.080 336 L 60.161 336 58.504 341.250 M 440 344 L 440 352 448.448 352 L 456.896 352 456.025 349.250 C 455.546 347.738, 454.408 344.137, 453.496 341.250 L 451.839 336 445.920 336 L 440 336 440 344 M 200 368 L 200 376 216 376 L 232 376 232 368 L 232 360 216 360 L 200 360 200 368 M 376 368 L 376 376 392 376 L 408 376 408 368 L 408 360 392 360 L 376 360 376 368 M 48.504 373.250 C 47.592 376.137, 46.454 379.738, 45.975 381.250 L 45.104 384 58.552 384 L 72 384 72 376 L 72 368 61.080 368 L 50.161 368 48.504 373.250 M 440 376 L 440 384 453.448 384 L 466.896 384 466.025 381.250 C 465.546 379.738, 464.408 376.137, 463.496 373.250 L 461.839 368 450.920 368 L 440 368 440 376 M 200 392 L 200 400 216 400 L 232 400 232 392 L 232 384 216 384 L 200 384 200 392 M 376 392 L 376 400 392 400 L 408 400 408 392 L 408 384 392 384 L 376 384 376 392 M 38.504 405.250 C 37.592 408.137, 36.454 411.738, 35.975 413.250 L 35.104 416 53.552 416 L 72 416 72 408 L 72 400 56.080 400 L 40.161 400 38.504 405.250 M 440 408 L 440 416 458.448 416 L 476.896 416 476.025 413.250 C 475.546 411.738, 474.408 408.137, 473.496 405.250 L 471.839 400 455.920 400 L 440 400 440 408 M 32 440 L 32 448 256 448 L 480 448 480 440 L 480 432 256 432 L 32 432 32 440 M 32 472 L 32 480 48 480 L 64 480 64 472 L 64 464 48 464 L 32 464 32 472 M 240 472 L 240 480 256 480 L 272 480 272 472 L 272 464 256 464 L 240 464 240 472 M 448 472 L 448 480 464 480 L 480 480 480 472 L 480 464 464 464 L 448 464 448 472"
                stroke="none" fill="#f6ab13" fill-rule="evenodd" />
        </symbol>

        <symbol id="level" viewBox="0 0 512 512">
            <path
                d="M64 64c0-17.7-14.3-32-32-32S0 46.3 0 64L0 400c0 44.2 35.8 80 80 80l400 0c17.7 0 32-14.3 32-32s-14.3-32-32-32L80 416c-8.8 0-16-7.2-16-16L64 64zm406.6 86.6c12.5-12.5 12.5-32.8 0-45.3s-32.8-12.5-45.3 0L320 210.7l-57.4-57.4c-12.5-12.5-32.8-12.5-45.3 0l-112 112c-12.5 12.5-12.5 32.8 0 45.3s32.8 12.5 45.3 0L240 221.3l57.4 57.4c12.5 12.5 32.8 12.5 45.3 0l128-128z" />
        </symbol>

        <symbol id="trash" viewBox="0 0 16 16">
            <path d="M6 2H10" stroke="#323F47" stroke-width="1.5" stroke-linecap="round" stroke-linejoin="round" />
            <path
                d="M2 4H14M12.6667 4L12.1991 11.0129C12.129 12.065 12.0939 12.5911 11.8667 12.99C11.6666 13.3412 11.3648 13.6235 11.0011 13.7998C10.588 14 10.0607 14 9.00623 14H6.99377C5.93927 14 5.41202 14 4.99889 13.7998C4.63517 13.6235 4.33339 13.3412 4.13332 12.99C3.90607 12.5911 3.871 12.065 3.80086 11.0129L3.33333 4"
                stroke="#323F47" stroke-width="1.8" stroke-linecap="round" stroke-linejoin="round" fill="none" />
        </symbol>

        <symbol id="edit" viewBox="0 0 16 16">
            <path
                d="M11.333 1.99998C11.5081 1.82488 11.716 1.68599 11.9447 1.59123C12.1735 1.49647 12.4187 1.44769 12.6663 1.44769C12.914 1.44769 13.1592 1.49647 13.3879 1.59123C13.6167 1.68599 13.8246 1.82488 13.9997 1.99998C14.1748 2.17507 14.3137 2.38294 14.4084 2.61172C14.5032 2.84049 14.552 3.08569 14.552 3.33331C14.552 3.58093 14.5032 3.82613 14.4084 4.05491C14.3137 4.28368 14.1748 4.49155 13.9997 4.66664L4.99967 13.6666L1.33301 14.6666L2.33301 11L11.333 1.99998Z"
                stroke="#323F47" stroke-width="1.8" stroke-linecap="round" stroke-linejoin="round" fill="none" />
        </symbol>

        <symbol id="star" viewBox="0 0 48 48">
            <path
                d="M 21.748 15.401 C 20.408 18.213, 19.405 18.925, 15.968 19.505 L 11.809 20.208 14.922 23.420 C 16.634 25.186, 17.866 26.827, 17.659 27.066 C 17.452 27.305, 17.024 29.182, 16.706 31.237 L 16.130 34.974 20.065 32.967 L 24 30.959 27.935 32.967 L 31.870 34.974 31.294 31.237 C 30.976 29.182, 30.548 27.305, 30.341 27.066 C 30.134 26.827, 31.366 25.186, 33.078 23.420 L 36.191 20.208 32.032 19.505 C 28.595 18.925, 27.592 18.213, 26.252 15.401 C 25.359 13.531, 24.346 12, 24 12 C 23.654 12, 22.641 13.531, 21.748 15.401"
                stroke="none" fill="#fcc52c" fill-rule="evenodd" />
            <path
                d="M 15.200 5.617 C 10.685 7.917, 5.164 14.610, 4.393 18.719 C 2.656 27.980, 5.752 35.834, 13.248 41.180 C 15.955 43.111, 17.757 43.500, 24 43.500 C 32.426 43.500, 35.691 41.894, 40.752 35.258 C 43.196 32.054, 43.500 30.809, 43.500 24 C 43.500 17.191, 43.196 15.946, 40.752 12.742 C 36.056 6.585, 32.341 4.576, 25.022 4.238 C 20.400 4.024, 17.539 4.426, 15.200 5.617 M 21.748 15.401 C 20.408 18.213, 19.405 18.925, 15.968 19.505 L 11.809 20.208 14.922 23.420 C 16.634 25.186, 17.866 26.827, 17.659 27.066 C 17.452 27.305, 17.024 29.182, 16.706 31.237 L 16.130 34.974 20.065 32.967 L 24 30.959 27.935 32.967 L 31.870 34.974 31.294 31.237 C 30.976 29.182, 30.548 27.305, 30.341 27.066 C 30.134 26.827, 31.366 25.186, 33.078 23.420 L 36.191 20.208 32.032 19.505 C 28.595 18.925, 27.592 18.213, 26.252 15.401 C 25.359 13.531, 24.346 12, 24 12 C 23.654 12, 22.641 13.531, 21.748 15.401"
                stroke="none" fill="#f44434" fill-rule="evenodd" />
        </symbol>

        <symbol id="upload" viewBox="0 0 20 20">
            <path
                d="M17.5 12.5V15.8333C17.5 16.2754 17.3244 16.6993 17.0118 17.0118C16.6993 17.3244 16.2754 17.5 15.8333 17.5H4.16667C3.72464 17.5 3.30072 17.3244 2.98816 17.0118C2.67559 16.6993 2.5 16.2754 2.5 15.8333V12.5"
                stroke="#2F2F2F" stroke-width="1.8" stroke-linecap="round" stroke-linejoin="round" fill="none" />
            <path d="M14.1663 6.66667L9.99967 2.5L5.83301 6.66667" stroke="#2F2F2F" stroke-width="1.8"
                stroke-linecap="round" stroke-linejoin="round" fill="none" />
            <path d="M10 2.5V12.5" stroke="#2F2F2F" stroke-width="1.8" stroke-linecap="round" stroke-linejoin="round" />
        </symbol>

        <symbol id="summary" viewBox="0 0 512 512">
            <path
                d="M 24 224 L 24 368 135.902 368 L 247.804 368 248.474 361.750 C 248.842 358.313, 249.367 354.712, 249.639 353.750 C 250.085 352.176, 249.225 352, 241.067 352 L 232 352 232 304 L 232 256 256 256 L 280 256 280 273.219 L 280 290.437 285.750 284.832 C 325.194 246.380, 386.963 236.607, 433.699 261.424 L 440 264.769 440 192.423 L 440 120.077 435.750 118.979 C 433.412 118.375, 430.600 117.638, 429.500 117.340 C 428.400 117.043, 424.612 115.236, 421.081 113.326 L 414.663 109.852 390.393 134.107 C 369.067 155.419, 366.249 158.598, 367.164 160.307 C 371.178 167.807, 366.051 182.206, 357.136 188.472 C 339.474 200.885, 311.101 178.497, 321.016 159.971 C 322.845 156.553, 307.206 141.591, 303.340 143.061 C 300.350 144.198, 291.266 144.178, 288.500 143.028 C 285.400 141.741, 245.635 181.450, 247.164 184.306 C 256.914 202.524, 228.300 224.726, 210.864 212.472 C 188.370 196.663, 207.842 156.071, 231.775 168.879 C 235.047 170.631, 274.733 131.239, 272.986 127.974 C 270.676 123.657, 272.122 111.710, 275.544 106.841 C 291.395 84.287, 328.173 101.117, 319.211 126.824 C 317.947 130.450, 333.094 146.835, 336 144.985 C 338.022 143.698, 349.647 143.741, 352.082 145.044 C 353.903 146.018, 402.679 98.853, 401.750 97.018 C 401.605 96.733, 399.690 92.800, 397.494 88.277 L 393.500 80.054 208.750 80.027 L 24 80 24 224 M 40 104 L 40 112 48 112 L 56 112 56 104 L 56 96 48 96 L 40 96 40 104 M 72 104 L 72 112 128 112 L 184 112 184 104 L 184 96 128 96 L 72 96 72 104 M 40 136 L 40 144 48 144 L 56 144 56 136 L 56 128 48 128 L 40 128 40 136 M 72 136 L 72 144 128 144 L 184 144 184 136 L 184 128 128 128 L 72 128 72 136 M 40 168 L 40 176 48 176 L 56 176 56 168 L 56 160 48 160 L 40 160 40 168 M 72 168 L 72 176 128 176 L 184 176 184 168 L 184 160 128 160 L 72 160 72 168 M 40 200 L 40 208 48 208 L 56 208 56 200 L 56 192 48 192 L 40 192 40 200 M 72 200 L 72 208 128 208 L 184 208 184 200 L 184 192 128 192 L 72 192 72 200 M 168 288 L 168 352 192 352 L 216 352 216 288 L 216 224 192 224 L 168 224 168 288 M 40 312 L 40 352 64 352 L 88 352 88 312 L 88 272 64 272 L 40 272 40 312 M 104 320 L 104 352 128 352 L 152 352 152 320 L 152 288 128 288 L 104 288 104 320"
                stroke="none" fill="#e6e9ed" fill-rule="evenodd" />
            <path
                d="M 184 288 L 184 336 192 336 L 200 336 200 288 L 200 240 192 240 L 184 240 184 288 M 248 304.063 L 248 336.127 251.101 335.813 C 253.963 335.524, 254.451 334.884, 257.434 327.500 C 259.211 323.100, 261.416 318.060, 262.333 316.300 C 263.731 313.615, 264 309.786, 264 292.550 L 264 272 256 272 L 248 272 248 304.063 M 56 312 L 56 336 64 336 L 72 336 72 312 L 72 288 64 288 L 56 288 56 312 M 120 320 L 120 336 128 336 L 136 336 136 320 L 136 304 128 304 L 120 304 120 320 M 298 430.591 C 291.125 434.635, 285.065 438.101, 284.534 438.294 C 283.005 438.848, 290.105 447.806, 298.680 456.138 C 341.705 497.948, 410.271 497.937, 453.340 456.113 C 460.614 449.050, 468.726 439.283, 467.870 438.619 C 467.666 438.462, 461.573 434.920, 454.329 430.748 L 441.158 423.163 436.093 428.986 C 405.125 464.591, 350.350 465.087, 317 430.065 L 310.500 423.239 298 430.591"
                stroke="none" fill="#fcd770" fill-rule="evenodd" />
            <path
                d="M 351.500 266.988 C 285.491 281.999, 248.074 350.828, 271.192 414.717 C 275.080 425.461, 274.293 425.385, 289.680 416.497 L 302.768 408.937 299.777 399.718 C 289.076 366.744, 301.960 329.721, 330.997 310.002 C 341.280 303.019, 349.260 299.882, 365.250 296.537 L 368 295.962 368 280.481 L 368 265 363.750 265.084 C 361.413 265.131, 355.900 265.987, 351.500 266.988"
                stroke="none" fill="#b4dd7f" fill-rule="evenodd" />
            <path
                d="M 438.618 25.048 C 414.099 31.207, 401.172 58.777, 412.272 81.237 C 427.187 111.415, 468.834 111.371, 483.765 81.160 C 498.360 51.631, 470.523 17.034, 438.618 25.048 M 290.455 114.455 C 285.494 119.415, 289.009 128, 296 128 C 300.111 128, 304 124.111, 304 120 C 304 115.889, 300.111 112, 296 112 C 294.052 112, 292.002 112.907, 290.455 114.455 M 338.455 162.455 C 333.494 167.415, 337.009 176, 344 176 C 348.111 176, 352 172.111, 352 168 C 352 163.889, 348.111 160, 344 160 C 342.052 160, 340.002 160.907, 338.455 162.455 M 218.455 186.455 C 213.494 191.415, 217.009 200, 224 200 C 225.948 200, 227.998 199.093, 229.545 197.545 C 231.093 195.998, 232 193.948, 232 192 C 232 190.052, 231.093 188.002, 229.545 186.455 C 227.998 184.907, 225.948 184, 224 184 C 222.052 184, 220.002 184.907, 218.455 186.455 M 384.226 280.360 L 384.500 296.384 391 297.600 C 438.883 306.553, 468.227 357.970, 451.117 402.940 C 449.979 405.933, 449.274 408.607, 449.550 408.883 C 449.826 409.159, 456.003 412.867, 463.276 417.122 L 476.500 424.858 478.801 419.768 C 508.546 353.972, 463.205 274.398, 390.726 265.195 L 383.952 264.335 384.226 280.360"
                stroke="none" fill="#ff826e" fill-rule="evenodd" />
            <path
                d="M 370 312.586 C 335.296 318.372, 312.884 342.966, 312.667 375.500 C 312.169 450.284, 421.285 462.902, 438.061 390 C 447.424 349.313, 409.364 306.022, 370 312.586 M 361.798 329.931 C 316.774 344.327, 316.764 408.110, 361.783 422.015 C 392.802 431.595, 424 408.521, 424 376 C 424 343.611, 392.343 320.164, 361.798 329.931"
                stroke="none" fill="#e4dac9" fill-rule="evenodd" />
            <path
                d="M 433.608 9.522 C 410.903 15.756, 392.071 38.496, 392.012 59.750 L 392 64 200 64 L 8 64 8 224 L 8 384 127.792 384 L 247.585 384 249.322 395.001 C 261.657 473.101, 339.399 521.865, 414.171 498.404 C 506.581 469.408, 534.650 353.223, 465.787 284.758 L 455.988 275.016 456.244 197.333 L 456.500 119.651 461.728 118.474 C 480.277 114.296, 497.537 97.278, 502.416 78.356 C 513.039 37.153, 474.261 -1.640, 433.608 9.522 M 438.618 25.048 C 414.099 31.207, 401.172 58.777, 412.272 81.237 C 427.187 111.415, 468.834 111.371, 483.765 81.160 C 498.360 51.631, 470.523 17.034, 438.618 25.048 M 24 224 L 24 368 136.500 368 L 249 368 249 364.640 C 249 362.791, 249.286 359.191, 249.636 356.640 L 250.272 352 241.136 352 L 232 352 232 304 L 232 256 256 256 L 280 256 280 273.609 L 280 291.218 288.317 283.345 C 325.486 248.162, 378.684 238.572, 425.971 258.532 C 432.035 261.092, 437.249 263.594, 437.558 264.093 C 439.724 267.599, 440 259.485, 440 192.221 L 440 119.443 433.097 117.665 C 429.300 116.687, 423.586 114.316, 420.400 112.398 L 414.606 108.909 390.284 133.204 C 366.852 156.611, 365.991 157.610, 366.731 160.500 C 370.929 176.880, 360.242 191.421, 344 191.429 C 328.302 191.437, 316.965 176.984, 320.979 162.079 L 322.164 157.679 314.293 149.808 L 306.423 141.938 301.211 143.141 C 297.152 144.078, 294.849 144.078, 290.790 143.141 L 285.580 141.938 265.771 161.719 C 246.757 180.705, 245.992 181.621, 246.731 184.500 C 254.115 213.295, 216.144 228.284, 202.398 202 C 193.564 185.108, 211.207 163.940, 229.920 168.978 L 234.319 170.163 254.179 150.331 C 273.242 131.296, 274.008 130.380, 273.269 127.500 C 269.071 111.131, 279.778 96.562, 296 96.571 C 311.727 96.579, 323.039 111, 319.021 125.921 L 317.836 130.321 325.707 138.192 L 333.577 146.062 338.789 144.859 C 342.850 143.922, 345.151 143.922, 349.215 144.860 L 354.431 146.064 378.763 121.732 L 403.095 97.400 399.606 91.607 C 397.688 88.420, 395.831 84.505, 395.480 82.907 L 394.841 80 209.421 80 L 24 80 24 224 M 40 104 L 40 112 48 112 L 56 112 56 104 L 56 96 48 96 L 40 96 40 104 M 72 104 L 72 112 128 112 L 184 112 184 104 L 184 96 128 96 L 72 96 72 104 M 290.455 114.455 C 285.494 119.415, 289.009 128, 296 128 C 300.111 128, 304 124.111, 304 120 C 304 115.889, 300.111 112, 296 112 C 294.052 112, 292.002 112.907, 290.455 114.455 M 40 136 L 40 144 48 144 L 56 144 56 136 L 56 128 48 128 L 40 128 40 136 M 72 136 L 72 144 128 144 L 184 144 184 136 L 184 128 128 128 L 72 128 72 136 M 40 168 L 40 176 48 176 L 56 176 56 168 L 56 160 48 160 L 40 160 40 168 M 72 168 L 72 176 128 176 L 184 176 184 168 L 184 160 128 160 L 72 160 72 168 M 338.455 162.455 C 333.494 167.415, 337.009 176, 344 176 C 348.111 176, 352 172.111, 352 168 C 352 163.889, 348.111 160, 344 160 C 342.052 160, 340.002 160.907, 338.455 162.455 M 218.455 186.455 C 213.494 191.415, 217.009 200, 224 200 C 225.948 200, 227.998 199.093, 229.545 197.545 C 231.093 195.998, 232 193.948, 232 192 C 232 190.052, 231.093 188.002, 229.545 186.455 C 227.998 184.907, 225.948 184, 224 184 C 222.052 184, 220.002 184.907, 218.455 186.455 M 40 200 L 40 208 48 208 L 56 208 56 200 L 56 192 48 192 L 40 192 40 200 M 72 200 L 72 208 128 208 L 184 208 184 200 L 184 192 128 192 L 72 192 72 200 M 168 288 L 168 352 192 352 L 216 352 216 288 L 216 224 192 224 L 168 224 168 288 M 184 288 L 184 336 192 336 L 200 336 200 288 L 200 240 192 240 L 184 240 184 288 M 358.785 265.648 C 287.654 275.926, 243.806 354.881, 273.199 419.757 L 275.500 424.836 288.500 417.342 C 295.650 413.221, 301.820 409.540, 302.212 409.162 C 302.604 408.785, 301.866 405.556, 300.572 401.988 C 284.272 357.024, 315.690 303.549, 362.017 297.403 C 368.395 296.557, 368.110 297.448, 367.777 279.403 L 367.500 264.389 358.785 265.648 M 384.226 280.360 L 384.500 296.384 391 297.600 C 438.883 306.553, 468.227 357.970, 451.117 402.940 C 449.979 405.933, 449.274 408.607, 449.550 408.883 C 449.826 409.159, 456.003 412.867, 463.276 417.122 L 476.500 424.858 478.801 419.768 C 508.546 353.972, 463.205 274.398, 390.726 265.195 L 383.952 264.335 384.226 280.360 M 40 312 L 40 352 64 352 L 88 352 88 312 L 88 272 64 272 L 40 272 40 312 M 248 304 L 248 336 251.299 336 C 254.210 336, 254.754 335.558, 255.921 332.250 C 256.648 330.188, 258.763 325.174, 260.621 321.109 L 264 313.718 264 292.859 L 264 272 256 272 L 248 272 248 304 M 56 312 L 56 336 64 336 L 72 336 72 312 L 72 288 64 288 L 56 288 56 312 M 104 320 L 104 352 128 352 L 152 352 152 320 L 152 288 128 288 L 104 288 104 320 M 120 320 L 120 336 128 336 L 136 336 136 320 L 136 304 128 304 L 120 304 120 320 M 362 313.547 C 338.891 318.482, 318.335 339.227, 313.491 362.500 C 300.565 424.614, 376.285 465.836, 421.061 421.061 C 466.013 376.108, 424.333 300.235, 362 313.547 M 364.773 329.555 C 328.143 338.434, 315.723 385.086, 343.213 410.537 C 371.748 436.955, 417.348 421.271, 423.272 383 C 428.397 349.891, 397.464 321.630, 364.773 329.555 M 370.132 345.056 C 346.303 349.855, 336.379 378.859, 352.449 396.733 C 370.272 416.556, 401.976 407.491, 406.973 381.143 C 410.936 360.248, 391.113 340.831, 370.132 345.056 M 297.250 430.615 C 281.734 439.526, 282.156 438.334, 290.893 448.594 C 335.818 501.348, 418.550 500.727, 462.250 447.306 C 469.620 438.297, 470.136 439.436, 454.665 430.576 L 441.330 422.940 432.415 431.808 C 399.984 464.069, 352.029 464.082, 319.615 431.838 C 314.728 426.977, 310.678 423.001, 310.615 423.003 C 310.552 423.004, 304.538 426.430, 297.250 430.615"
                stroke="none" fill="#040404" fill-rule="evenodd" />
        </symbol>

        <symbol id="day" viewBox="0 0 512 512">
            <path
                d="M 253.457 451.169 C 251.063 459.097, 261.024 458.467, 133.294 458.767 L 19.734 459.034 20.203 468.777 C 20.792 481, 23.127 485.778, 30.500 489.845 C 33.259 491.367, 49.790 491.521, 236.600 491.762 L 439.701 492.024 437.883 486.762 C 436.558 482.926, 436.056 478.459, 436.033 470.283 L 436 459.065 381.250 458.783 C 320.518 458.469, 323.397 458.801, 320.275 451.750 L 318.615 448 310.508 448 L 302.402 448 301.127 451.525 C 297.864 460.548, 284.962 460.476, 281.973 451.418 L 280.845 448 267.629 448 L 254.414 448 253.457 451.169"
                stroke="none" fill="#c7eaff" fill-rule="evenodd" />
            <path
                d="M 143.442 2.806 C 131.467 8.593, 126 18.539, 126 34.538 L 126 44 101.250 44.004 C 59.947 44.010, 44.112 52.785, 35.389 80.500 C 32.899 88.409, 32.406 264.650, 34.860 269.238 C 37.848 274.822, 45.909 275.360, 50.609 270.288 L 53 267.708 53 207.354 L 53 147 233.250 146.944 C 430.653 146.882, 419.023 147.262, 422.499 140.750 L 424.500 137 422.499 133.250 C 419.023 126.738, 430.662 127.118, 233.146 127.056 L 52.791 127 53.146 107.228 L 53.500 87.456 56.782 80.790 C 64 66.131, 69.118 64.198, 101.751 63.804 L 127.002 63.500 127.002 73 C 127.001 116.378, 183.705 117.203, 185.793 73.856 L 186.267 64 270.634 64 L 355 64 355.001 73.250 C 355.004 116.462, 411.716 116.992, 413.795 73.800 L 414.273 63.889 442.886 64.195 C 477.429 64.563, 481.625 66.019, 489.243 80.277 L 491.500 84.500 491.760 281.895 L 492.020 479.291 489.608 483.406 C 477.552 503.978, 456 491.960, 456 464.665 C 456 447.560, 455.557 444.829, 452.241 441.514 L 449.727 439 388.086 439 C 319.899 439, 323.252 438.676, 321.008 445.475 C 317.054 457.458, 319.703 457.997, 382.597 457.998 L 435.694 458 436.305 469.406 C 436.701 476.782, 437.611 482.789, 438.883 486.406 L 440.849 492 236.762 492 L 32.676 492 28.577 489.598 C 21.829 485.643, 20 481.169, 20 468.614 L 20 458 130.875 458 C 191.856 458, 243.150 457.720, 244.861 457.378 C 252.686 455.813, 255.697 446.958, 250.195 441.687 L 247.391 439 195.695 439 C 167.263 439, 144 438.726, 144 438.390 C 144 438.055, 146.327 435.242, 149.171 432.140 C 211.803 363.824, 135.232 263.373, 52 304.666 C 3.931 328.514, -6.825 393.422, 30.857 432.250 L 36.437 438 21.324 438 L 6.212 438 3.106 440.901 L 0 443.802 0 462.223 C 0 491.668, 6.571 503.630, 26.428 510.336 C 34.016 512.898, 477.984 512.898, 485.572 510.336 C 497.229 506.400, 506.492 497.353, 509.978 486.500 C 510.684 484.300, 511.509 482.075, 511.810 481.556 C 513.295 478.996, 511.836 85.811, 510.322 80.654 C 502.107 52.669, 486.058 44, 442.462 44 L 415.287 44 414.756 33.585 C 412.399 -12.596, 354 -11.680, 354 34.538 L 354 44 270.644 44 L 187.287 44 186.756 33.585 C 185.410 7.222, 164.723 -7.478, 143.442 2.806 M 150.750 21.080 C 146.429 23.597, 146 26.561, 146 53.874 L 146 79.847 148.560 82.889 C 153.493 88.751, 161.847 87.805, 165.248 80.999 C 167.226 77.041, 167.907 31.517, 166.061 26.661 C 163.845 20.832, 156.052 17.992, 150.750 21.080 M 378.750 21.080 C 374.429 23.597, 374 26.561, 374 53.874 L 374 79.847 376.560 82.889 C 381.493 88.751, 389.847 87.805, 393.248 80.999 C 395.226 77.041, 395.907 31.517, 394.061 26.661 C 391.845 20.832, 384.052 17.992, 378.750 21.080 M 454.636 130.636 C 449.034 136.238, 452.888 146, 460.702 146 C 465.428 146, 467.919 144.437, 469.598 140.420 C 473.459 131.179, 461.750 123.523, 454.636 130.636 M 122 202.328 C 80.440 216.720, 91.439 277.190, 135.187 274.831 C 173.419 272.769, 183.041 220.424, 148.175 204.176 C 141.660 201.140, 128.180 200.188, 122 202.328 M 212.729 203.363 C 174.405 219.509, 185.051 274.500, 226.500 274.500 C 265.918 274.500, 277.662 222.335, 242.275 204.431 C 234.135 200.312, 221.088 199.841, 212.729 203.363 M 306.852 202.911 C 268.958 217.732, 277.562 273.241, 318 274.835 C 359.793 276.483, 371.935 219.324, 333.178 203.383 C 325.919 200.397, 313.834 200.181, 306.852 202.911 M 402 202.328 C 360.440 216.720, 371.439 277.190, 415.187 274.831 C 453.419 272.769, 463.041 220.424, 428.175 204.176 C 421.660 201.140, 408.180 200.188, 402 202.328 M 123.830 222.027 C 116.936 225.669, 113.323 234.040, 115.145 242.150 C 119.841 263.049, 151 259.485, 151 238.048 C 151 224.096, 136.311 215.434, 123.830 222.027 M 217.500 221.814 C 199.917 233.068, 207.809 257.507, 228.474 255.794 C 244.749 254.444, 250.519 233.363, 237.361 223.326 C 232.509 219.626, 222.151 218.837, 217.500 221.814 M 311.500 221.412 C 302.752 225.300, 298.743 236.515, 302.890 245.500 C 311.177 263.455, 337.500 257.750, 337.500 238 C 337.500 224.450, 324.018 215.848, 311.500 221.412 M 403.503 222.297 C 387.655 231.272, 394.506 255.927, 412.864 255.984 C 423.473 256.016, 431 248.572, 431 238.048 C 431 223.838, 415.977 215.232, 403.503 222.297 M 212.729 307.363 C 174.405 323.509, 185.051 378.500, 226.500 378.500 C 265.918 378.500, 277.662 326.335, 242.275 308.431 C 234.135 304.312, 221.088 303.841, 212.729 307.363 M 306.852 306.911 C 268.958 321.732, 277.562 377.241, 318 378.835 C 359.793 380.483, 371.935 323.324, 333.178 307.383 C 325.919 304.397, 313.834 304.181, 306.852 306.911 M 402 306.328 C 360.440 320.720, 371.439 381.190, 415.187 378.831 C 453.419 376.769, 463.041 324.424, 428.175 308.176 C 421.660 305.140, 408.180 304.188, 402 306.328 M 75.217 315.449 C 41.553 323.601, 20.018 361.960, 30.838 394.500 C 45.321 438.053, 99.565 452.661, 132.479 421.871 C 179.433 377.947, 137.669 300.328, 75.217 315.449 M 217.500 325.814 C 199.917 337.068, 207.809 361.507, 228.474 359.794 C 244.749 358.444, 250.519 337.363, 237.361 327.326 C 232.509 323.626, 222.151 322.837, 217.500 325.814 M 311.500 325.412 C 302.752 329.300, 298.743 340.515, 302.890 349.500 C 311.177 367.455, 337.500 361.750, 337.500 342 C 337.500 328.450, 324.018 319.848, 311.500 325.412 M 403.503 326.297 C 387.655 335.272, 394.506 359.927, 412.864 359.984 C 423.473 360.016, 431 352.572, 431 342.048 C 431 327.838, 415.977 319.232, 403.503 326.297 M 115.500 350.438 C 113.850 351.186, 105.103 359.246, 96.062 368.348 L 79.625 384.898 72.309 377.949 C 63.616 369.691, 59.994 368.853, 54.923 373.923 C 49.304 379.543, 50.371 382.471, 62.622 395.033 C 79.810 412.658, 78.743 412.919, 107.340 384.114 C 131.395 359.884, 133.559 355.056, 122.452 350.415 C 118.473 348.753, 119.223 348.751, 115.500 350.438 M 285.495 441.414 C 280.934 445.976, 281.381 452.238, 286.510 455.598 C 295.662 461.595, 305.783 449.629, 298.077 441.923 C 294.276 438.122, 289 437.909, 285.495 441.414 M 0.419 463 C 0.419 473.725, 0.566 478.113, 0.746 472.750 C 0.925 467.387, 0.925 458.613, 0.746 453.250 C 0.566 447.887, 0.419 452.275, 0.419 463"
                stroke="none" fill="#000000" fill-rule="evenodd" />
            <path
                d="M 150.913 22.282 C 147.297 25.059, 147 27.462, 147 53.980 L 147 80.091 149.414 82.505 C 161.375 94.466, 166.254 84.993, 165.817 50.662 L 165.500 25.824 162.694 23.412 C 159.598 20.750, 153.651 20.180, 150.913 22.282 M 378.913 22.282 C 375.297 25.059, 375 27.462, 375 53.980 L 375 80.091 377.414 82.505 C 389.375 94.466, 394.254 84.993, 393.817 50.662 L 393.500 25.824 390.694 23.412 C 387.598 20.750, 381.651 20.180, 378.913 22.282 M 424.195 139.871 C 423.645 141.449, 422.166 143.699, 420.909 144.871 L 418.623 147 236.311 147 L 54 147 54 207.423 L 54 267.847 51.520 270.794 C 50.155 272.416, 47.680 274.014, 46.020 274.346 L 43 274.950 43 291.475 C 43 300.564, 43.218 308, 43.485 308 C 43.752 308, 46.204 306.626, 48.934 304.946 C 128.660 255.890, 216.184 367.664, 149.401 433.250 L 144.565 438 196.205 438 L 247.846 438 250.923 441.077 C 252.615 442.769, 254 445.019, 254 446.077 C 254 447.878, 254.844 448, 267.308 448 L 280.615 448 282.309 444.160 C 286.194 435.356, 299.263 436.233, 301.577 445.452 C 302.523 449.219, 319.278 449.064, 319.815 445.284 C 319.988 444.065, 321.485 441.928, 323.142 440.534 L 326.153 438 388.154 438 L 450.154 438 453.077 440.923 L 456 443.846 456.044 458.173 C 456.068 466.053, 456.466 474.461, 456.929 476.858 C 460.607 495.897, 487.393 495.897, 491.071 476.858 C 491.534 474.461, 491.932 396.997, 491.956 304.715 L 492 136.930 481.750 137.215 C 472.093 137.484, 471.482 137.626, 471.191 139.673 C 469.793 149.485, 451 148.760, 451 138.894 C 451 137.133, 450.093 137, 438.098 137 L 425.196 137 424.195 139.871 M 121.254 201.460 C 91.055 210.894, 85.296 252.864, 111.861 269.911 C 137.492 286.358, 171 268.277, 171 238 C 171 212.456, 145.653 193.838, 121.254 201.460 M 215 201.329 C 172.231 216.126, 183.598 278.053, 228.676 275.833 C 256.283 274.474, 272.486 245.726, 259.976 220.303 C 252.363 204.832, 230.966 195.806, 215 201.329 M 305.892 202.307 C 266.420 218.878, 276.946 275.500, 319.500 275.500 C 369.511 275.500, 370.490 201.878, 320.500 200.246 C 312.880 199.998, 310.640 200.314, 305.892 202.307 M 401.254 201.460 C 371.055 210.894, 365.296 252.864, 391.861 269.911 C 417.492 286.358, 451 268.277, 451 238 C 451 212.456, 425.653 193.838, 401.254 201.460 M 215 305.329 C 172.231 320.126, 183.598 382.053, 228.676 379.833 C 256.283 378.474, 272.486 349.726, 259.976 324.303 C 252.363 308.832, 230.966 299.806, 215 305.329 M 305.892 306.307 C 266.420 322.878, 276.946 379.500, 319.500 379.500 C 369.511 379.500, 370.490 305.878, 320.500 304.246 C 312.880 303.998, 310.640 304.314, 305.892 306.307 M 401.254 305.460 C 371.055 314.894, 365.296 356.864, 391.861 373.911 C 417.492 390.358, 451 372.277, 451 342 C 451 316.456, 425.653 297.838, 401.254 305.460"
                stroke="none" fill="#ffffff" fill-rule="evenodd" />
            <path
                d="M 75.792 65.402 C 59.218 69.863, 54 80.066, 54 108.011 L 54 127 235.250 127.004 C 438.800 127.008, 422.128 126.389, 423.650 134.001 L 424.250 137 437.606 137 L 450.962 137 451.590 134.497 C 454.006 124.873, 470.854 125.527, 470.978 135.250 C 470.998 136.805, 472.179 137, 481.576 137 L 492.152 137 491.826 111.750 C 491.268 68.510, 487.263 64.705, 441.750 64.179 L 414 63.859 413.990 73.679 C 413.947 117.356, 356.669 117.714, 354.263 74.053 L 353.709 64 269.855 64 L 186 64 185.990 73.750 C 185.947 117.366, 128.666 117.657, 126.263 74.053 L 125.709 64 103.105 64.067 C 88.206 64.112, 78.895 64.567, 75.792 65.402"
                stroke="none" fill="#baee83" fill-rule="evenodd" />
            <path
                d="M 146.431 53.500 C 146.432 66.700, 146.574 71.962, 146.747 65.193 C 146.921 58.424, 146.920 47.624, 146.746 41.193 C 146.572 34.762, 146.431 40.300, 146.431 53.500 M 374.431 53.500 C 374.432 66.700, 374.574 71.962, 374.747 65.193 C 374.921 58.424, 374.920 47.624, 374.746 41.193 C 374.572 34.762, 374.431 40.300, 374.431 53.500 M 124.970 222.250 C 111.847 228.879, 111.847 247.121, 124.970 253.750 C 137.055 259.855, 150.467 251.571, 150.467 238 C 150.467 224.429, 137.055 216.145, 124.970 222.250 M 219.500 221.423 C 202.924 228.852, 206.431 253.716, 224.339 255.735 C 243.852 257.934, 251.503 230.036, 233.616 221.913 C 228.787 219.720, 223.694 219.543, 219.500 221.423 M 312.500 221.831 C 297.369 229.039, 298.666 249.774, 314.577 255.025 C 325.538 258.643, 336.993 249.943, 336.993 238 C 336.993 225.074, 323.873 216.413, 312.500 221.831 M 219.500 325.423 C 202.924 332.852, 206.431 357.716, 224.339 359.735 C 243.852 361.934, 251.503 334.036, 233.616 325.913 C 228.787 323.720, 223.694 323.543, 219.500 325.423 M 312.500 325.831 C 297.369 333.039, 298.666 353.774, 314.577 359.025 C 325.538 362.643, 336.993 353.943, 336.993 342 C 336.993 329.074, 323.873 320.413, 312.500 325.831 M 75.750 458.750 C 106.688 458.897, 157.313 458.897, 188.250 458.750 C 219.188 458.603, 193.875 458.483, 132 458.483 C 70.125 458.483, 44.813 458.603, 75.750 458.750 M 355.179 458.749 C 369.853 458.905, 394.153 458.905, 409.179 458.749 C 424.206 458.594, 412.200 458.466, 382.500 458.466 C 352.800 458.466, 340.506 458.593, 355.179 458.749"
                stroke="none" fill="#a5ddff" fill-rule="evenodd" />
            <path
                d="M 404.970 222.250 C 391.825 228.891, 391.846 247.031, 405.008 253.815 C 413.876 258.387, 424.554 254.685, 429.001 245.498 C 436.331 230.356, 420.068 214.623, 404.970 222.250 M 77 315.560 C 33.152 325.011, 13.810 380.100, 42.207 414.654 C 70.963 449.646, 125.048 444.022, 145.502 403.913 C 169.053 357.731, 127.858 304.598, 77 315.560 M 404.970 326.250 C 391.825 332.891, 391.846 351.031, 405.008 357.815 C 413.876 362.387, 424.554 358.685, 429.001 349.498 C 436.331 334.356, 420.068 318.623, 404.970 326.250 M 97.068 366.488 L 79.408 383.976 74.010 378.510 C 63.684 368.055, 53.739 367.808, 51.511 377.952 C 49.809 385.697, 71.066 408, 80.149 408 C 83.781 408, 127.475 365.881, 128.647 361.250 C 130.192 355.149, 125.208 349, 118.718 349 C 114.890 349, 114.011 349.710, 97.068 366.488"
                stroke="none" fill="#fe6663" fill-rule="evenodd" />
            <path
                d="M 166.435 53 C 166.435 67.025, 166.575 72.763, 166.747 65.750 C 166.919 58.738, 166.919 47.263, 166.747 40.250 C 166.575 33.238, 166.435 38.975, 166.435 53 M 394.435 53 C 394.435 67.025, 394.575 72.763, 394.747 65.750 C 394.919 58.738, 394.919 47.263, 394.747 40.250 C 394.575 33.238, 394.435 38.975, 394.435 53 M 124.699 63.793 C 125.380 64.226, 126.052 67.568, 126.253 71.528 L 126.608 78.500 126.804 70.750 C 126.976 63.956, 126.784 63.002, 125.250 63.015 C 124.063 63.026, 123.886 63.276, 124.699 63.793 M 354.336 71 C 354.336 75.125, 354.513 76.813, 354.728 74.750 C 354.944 72.688, 354.944 69.313, 354.728 67.250 C 354.513 65.188, 354.336 66.875, 354.336 71 M 53.413 109.500 C 53.414 119.400, 53.564 123.315, 53.746 118.199 C 53.928 113.084, 53.927 104.984, 53.744 100.199 C 53.561 95.415, 53.412 99.600, 53.413 109.500 M 53.469 206 C 53.469 238.725, 53.595 252.112, 53.749 235.750 C 53.904 219.387, 53.904 192.612, 53.749 176.250 C 53.595 159.887, 53.469 173.275, 53.469 206 M 130.762 200.707 C 132.006 200.946, 133.806 200.937, 134.762 200.687 C 135.718 200.437, 134.700 200.241, 132.500 200.252 C 130.300 200.263, 129.518 200.468, 130.762 200.707 M 224.762 200.707 C 226.006 200.946, 227.806 200.937, 228.762 200.687 C 229.718 200.437, 228.700 200.241, 226.500 200.252 C 224.300 200.263, 223.518 200.468, 224.762 200.707 M 317.762 200.707 C 319.006 200.946, 320.806 200.937, 321.762 200.687 C 322.718 200.437, 321.700 200.241, 319.500 200.252 C 317.300 200.263, 316.518 200.468, 317.762 200.707 M 410.762 200.707 C 412.006 200.946, 413.806 200.937, 414.762 200.687 C 415.718 200.437, 414.700 200.241, 412.500 200.252 C 410.300 200.263, 409.518 200.468, 410.762 200.707 M 105.946 211.750 L 102.500 215.500 106.250 212.054 C 108.313 210.158, 110 208.471, 110 208.304 C 110 207.540, 109.154 208.260, 105.946 211.750 M 385.946 211.750 L 382.500 215.500 386.250 212.054 C 388.313 210.158, 390 208.471, 390 208.304 C 390 207.540, 389.154 208.260, 385.946 211.750 M 307.689 224.250 C 304.575 227.334, 304.563 227.373, 307.454 225.008 C 309.129 223.637, 310.928 222.175, 311.450 221.758 C 311.972 221.341, 312.078 221, 311.685 221 C 311.292 221, 309.494 222.463, 307.689 224.250 M 238.985 225.507 C 242.967 230.303, 243.303 230.613, 242.215 228.489 C 241.649 227.383, 240.131 225.586, 238.843 224.496 C 236.583 222.584, 236.588 222.620, 238.985 225.507 M 301.272 238 C 301.272 240.475, 301.467 241.488, 301.706 240.250 C 301.944 239.012, 301.944 236.988, 301.706 235.750 C 301.467 234.512, 301.272 235.525, 301.272 238 M 170.232 238 C 170.232 239.925, 170.438 240.713, 170.689 239.750 C 170.941 238.787, 170.941 237.213, 170.689 236.250 C 170.438 235.287, 170.232 236.075, 170.232 238 M 450.232 238 C 450.232 239.925, 450.438 240.713, 450.689 239.750 C 450.941 238.787, 450.941 237.213, 450.689 236.250 C 450.438 235.287, 450.232 236.075, 450.232 238 M 239.566 249.750 C 237.405 252.512, 237.232 252.976, 238.909 251.511 C 240.914 249.760, 243.558 246, 242.785 246 C 242.628 246, 241.180 247.688, 239.566 249.750 M 306.004 250.342 C 307.377 251.905, 309.400 253.647, 310.500 254.214 C 312.605 255.299, 312.544 255.234, 307.004 250.492 L 303.507 247.500 306.004 250.342 M 106 264.500 C 107.866 266.425, 109.617 268, 109.892 268 C 110.167 268, 108.866 266.425, 107 264.500 C 105.134 262.575, 103.383 261, 103.108 261 C 102.833 261, 104.134 262.575, 106 264.500 M 386 264.500 C 387.866 266.425, 389.617 268, 389.892 268 C 390.167 268, 388.866 266.425, 387 264.500 C 385.134 262.575, 383.383 261, 383.108 261 C 382.833 261, 384.134 262.575, 386 264.500 M 130.762 275.707 C 132.006 275.946, 133.806 275.937, 134.762 275.687 C 135.718 275.437, 134.700 275.241, 132.500 275.252 C 130.300 275.263, 129.518 275.468, 130.762 275.707 M 224.762 275.707 C 226.006 275.946, 227.806 275.937, 228.762 275.687 C 229.718 275.437, 228.700 275.241, 226.500 275.252 C 224.300 275.263, 223.518 275.468, 224.762 275.707 M 317.762 275.707 C 319.006 275.946, 320.806 275.937, 321.762 275.687 C 322.718 275.437, 321.700 275.241, 319.500 275.252 C 317.300 275.263, 316.518 275.468, 317.762 275.707 M 410.762 275.707 C 412.006 275.946, 413.806 275.937, 414.762 275.687 C 415.718 275.437, 414.700 275.241, 412.500 275.252 C 410.300 275.263, 409.518 275.468, 410.762 275.707 M 86.728 294.722 C 88.503 294.943, 91.653 294.946, 93.728 294.730 C 95.802 294.513, 94.350 294.333, 90.500 294.328 C 86.650 294.324, 84.952 294.501, 86.728 294.722 M 224.762 304.707 C 226.006 304.946, 227.806 304.937, 228.762 304.687 C 229.718 304.437, 228.700 304.241, 226.500 304.252 C 224.300 304.263, 223.518 304.468, 224.762 304.707 M 317.762 304.707 C 319.006 304.946, 320.806 304.937, 321.762 304.687 C 322.718 304.437, 321.700 304.241, 319.500 304.252 C 317.300 304.263, 316.518 304.468, 317.762 304.707 M 410.762 304.707 C 412.006 304.946, 413.806 304.937, 414.762 304.687 C 415.718 304.437, 414.700 304.241, 412.500 304.252 C 410.300 304.263, 409.518 304.468, 410.762 304.707 M 385.946 315.750 L 382.500 319.500 386.250 316.054 C 388.313 314.158, 390 312.471, 390 312.304 C 390 311.540, 389.154 312.260, 385.946 315.750 M 307.689 328.250 C 304.575 331.334, 304.563 331.373, 307.454 329.008 C 309.129 327.637, 310.928 326.175, 311.450 325.758 C 311.972 325.341, 312.078 325, 311.685 325 C 311.292 325, 309.494 326.462, 307.689 328.250 M 238.985 329.507 C 242.967 334.303, 243.303 334.613, 242.215 332.489 C 241.649 331.383, 240.131 329.586, 238.843 328.496 C 236.583 326.584, 236.588 326.620, 238.985 329.507 M 301.272 342 C 301.272 344.475, 301.467 345.488, 301.706 344.250 C 301.944 343.012, 301.944 340.988, 301.706 339.750 C 301.467 338.512, 301.272 339.525, 301.272 342 M 450.232 342 C 450.232 343.925, 450.438 344.712, 450.689 343.750 C 450.941 342.788, 450.941 341.212, 450.689 340.250 C 450.438 339.288, 450.232 340.075, 450.232 342 M 145.695 348.487 C 146.610 350.406, 147.536 351.797, 147.753 351.580 C 148.210 351.123, 145.175 345, 144.490 345 C 144.239 345, 144.781 346.569, 145.695 348.487 M 239.566 353.750 C 237.405 356.512, 237.232 356.976, 238.909 355.511 C 240.914 353.760, 243.558 350, 242.785 350 C 242.628 350, 241.180 351.688, 239.566 353.750 M 96.009 367.491 L 79.540 383.982 73.770 378.273 C 70.597 375.132, 68 372.788, 68 373.063 C 68 373.338, 70.596 376.132, 73.770 379.272 L 79.540 384.982 96.509 367.991 C 105.842 358.646, 113.253 351, 112.978 351 C 112.702 351, 105.066 358.421, 96.009 367.491 M 306.004 354.342 C 307.377 355.905, 309.400 357.647, 310.500 358.214 C 312.605 359.299, 312.544 359.234, 307.004 354.492 L 303.507 351.500 306.004 354.342 M 128.232 359 C 128.232 360.925, 128.438 361.712, 128.689 360.750 C 128.941 359.788, 128.941 358.212, 128.689 357.250 C 128.438 356.288, 128.232 357.075, 128.232 359 M 386 368.500 C 387.866 370.425, 389.617 372, 389.892 372 C 390.167 372, 388.866 370.425, 387 368.500 C 385.134 366.575, 383.383 365, 383.108 365 C 382.833 365, 384.134 366.575, 386 368.500 M 28.349 376 C 28.349 380.675, 28.522 382.587, 28.732 380.250 C 28.943 377.913, 28.943 374.087, 28.732 371.750 C 28.522 369.413, 28.349 371.325, 28.349 376 M 152.336 376 C 152.336 380.125, 152.513 381.813, 152.728 379.750 C 152.944 377.688, 152.944 374.313, 152.728 372.250 C 152.513 370.188, 152.336 371.875, 152.336 376 M 54.004 373.496 C 52.714 374.869, 51.848 376.120, 52.079 376.277 C 52.311 376.434, 53.709 375.311, 55.186 373.781 C 56.664 372.251, 57.530 371, 57.111 371 C 56.691 371, 55.293 372.123, 54.004 373.496 M 224.762 379.707 C 226.006 379.946, 227.806 379.937, 228.762 379.687 C 229.718 379.437, 228.700 379.241, 226.500 379.252 C 224.300 379.263, 223.518 379.468, 224.762 379.707 M 317.762 379.707 C 319.006 379.946, 320.806 379.937, 321.762 379.687 C 322.718 379.437, 321.700 379.241, 319.500 379.252 C 317.300 379.263, 316.518 379.468, 317.762 379.707 M 410.762 379.707 C 412.006 379.946, 413.806 379.937, 414.762 379.687 C 415.718 379.437, 414.700 379.241, 412.500 379.252 C 410.300 379.263, 409.518 379.468, 410.762 379.707 M 63 396.500 C 68.203 401.725, 72.685 406, 72.960 406 C 73.235 406, 69.203 401.725, 64 396.500 C 58.797 391.275, 54.315 387, 54.040 387 C 53.765 387, 57.797 391.275, 63 396.500 M 145.695 403.513 C 144.781 405.431, 144.239 407, 144.490 407 C 145.175 407, 148.210 400.877, 147.753 400.420 C 147.536 400.203, 146.610 401.594, 145.695 403.513 M 169.320 438.749 C 183.521 438.906, 206.471 438.906, 220.320 438.749 C 234.169 438.592, 222.550 438.464, 194.500 438.464 C 166.450 438.465, 155.119 438.593, 169.320 438.749 M 357.822 438.750 C 374.499 438.904, 401.499 438.903, 417.822 438.749 C 434.145 438.595, 420.500 438.469, 387.500 438.469 C 354.500 438.469, 341.145 438.596, 357.822 438.750 M 436.232 477 C 436.232 478.925, 436.438 479.712, 436.689 478.750 C 436.941 477.788, 436.941 476.212, 436.689 475.250 C 436.438 474.288, 436.232 475.075, 436.232 477"
                stroke="none" fill="#050404" fill-rule="evenodd" />
        </symbol>

        <symbol id="arrow-up" viewBox="0 0 512 512">
            <path
                d="M 246.118 117.171 C 241.183 119.067, 230.957 128.989, 122.904 236.727 C 29.058 330.300, 4.555 355.252, 2.536 359.304 C -4.391 373.205, 3.302 391.043, 18.122 395.444 C 24.708 397.399, 27.306 397.395, 33.966 395.417 C 39.103 393.892, 43.191 389.964, 147.139 286.667 C 206.453 227.725, 255.440 179.500, 256 179.500 C 256.560 179.500, 305.547 227.725, 364.861 286.667 C 468.809 389.964, 472.897 393.892, 478.034 395.417 C 485.058 397.503, 488.819 397.414, 495.253 395.006 C 505.359 391.226, 513 379.875, 513 368.646 C 513 365.357, 512.721 362.946, 512.379 363.287 C 512.038 363.629, 510.661 361.705, 509.319 359.013 C 507.425 355.211, 480.536 327.872, 388.961 236.639 C 278.590 126.680, 270.686 119.026, 265.483 117.080 C 258.553 114.487, 253.040 114.513, 246.118 117.171 M 0.328 370.500 C 0.333 374.350, 0.513 375.802, 0.730 373.728 C 0.946 371.653, 0.943 368.503, 0.722 366.728 C 0.501 364.952, 0.324 366.650, 0.328 370.500"
                stroke="none" fill="#040404" fill-rule="evenodd" />
        </symbol>

        <symbol id="arrow-down" viewBox="0 0 512 512">
            <path
                d="M 13.637 118.465 C 2.282 122.513, -3.152 136.382, 2.065 148 C 5.013 154.566, 240.434 389.987, 247 392.935 C 252.729 395.508, 259.271 395.508, 265 392.935 C 268.515 391.357, 295.593 364.814, 388.671 271.707 C 517.979 142.359, 513 147.763, 513 136.754 C 513 134.074, 512.632 132.110, 512.182 132.388 C 511.732 132.666, 510.816 131.381, 510.148 129.533 C 507.626 122.558, 498.650 116.987, 490 117.028 C 481.432 117.068, 482.734 115.855, 366.750 231.787 L 256 342.488 145.250 231.787 C 58.951 145.527, 33.507 120.640, 30 119.065 C 24.782 116.721, 19.111 116.513, 13.637 118.465 M 0.310 138.500 C 0.315 141.800, 0.502 143.029, 0.725 141.232 C 0.947 139.435, 0.943 136.735, 0.715 135.232 C 0.486 133.729, 0.304 135.200, 0.310 138.500"
                stroke="none" fill="#040404" fill-rule="evenodd" />

        </symbol>
        <!-- ??????? -->

        <symbol id="settings" viewBox="0 0 16 16">
            <path
                d="M8 10C9.10457 10 10 9.10457 10 8C10 6.89543 9.10457 6 8 6C6.89543 6 6 6.89543 6 8C6 9.10457 6.89543 10 8 10Z"
                stroke-width="1.5" stroke-linecap="round" stroke-linejoin="round" fill="none" />
            <path
                d="M12.9337 10C12.8449 10.2011 12.8184 10.4242 12.8577 10.6404C12.8969 10.8567 13 11.0562 13.1537 11.2134L13.1937 11.2534C13.3176 11.3772 13.416 11.5242 13.4831 11.6861C13.5502 11.848 13.5847 12.0215 13.5847 12.1967C13.5847 12.3719 13.5502 12.5454 13.4831 12.7073C13.416 12.8691 13.3176 13.0162 13.1937 13.14C13.0698 13.264 12.9228 13.3623 12.7609 13.4294C12.599 13.4965 12.4255 13.5311 12.2503 13.5311C12.0751 13.5311 11.9016 13.4965 11.7397 13.4294C11.5779 13.3623 11.4308 13.264 11.307 13.14L11.267 13.1C11.1099 12.9463 10.9103 12.8432 10.6941 12.804C10.4778 12.7648 10.2547 12.7913 10.0537 12.88C9.85648 12.9645 9.68832 13.1049 9.56986 13.2837C9.45141 13.4626 9.38785 13.6722 9.38699 13.8867V14C9.38699 14.3536 9.24652 14.6928 8.99647 14.9428C8.74642 15.1929 8.40728 15.3334 8.05366 15.3334C7.70004 15.3334 7.3609 15.1929 7.11085 14.9428C6.8608 14.6928 6.72033 14.3536 6.72033 14V13.94C6.71516 13.7194 6.64374 13.5054 6.51533 13.3258C6.38693 13.1463 6.20748 13.0095 6.00033 12.9334C5.79925 12.8446 5.5762 12.8181 5.35993 12.8574C5.14367 12.8966 4.94411 12.9997 4.78699 13.1534L4.74699 13.1934C4.62316 13.3173 4.47611 13.4157 4.31425 13.4828C4.15238 13.5499 3.97888 13.5844 3.80366 13.5844C3.62844 13.5844 3.45494 13.5499 3.29307 13.4828C3.13121 13.4157 2.98416 13.3173 2.86033 13.1934C2.73636 13.0695 2.63801 12.9225 2.57091 12.7606C2.50381 12.5987 2.46928 12.4252 2.46928 12.25C2.46928 12.0748 2.50381 11.9013 2.57091 11.7394C2.63801 11.5776 2.73636 11.4305 2.86033 11.3067L2.90033 11.2667C3.05402 11.1096 3.15712 10.91 3.19633 10.6937C3.23554 10.4775 3.20907 10.2544 3.12033 10.0534C3.03582 9.85618 2.8955 9.68801 2.71664 9.56956C2.53778 9.45111 2.32818 9.38754 2.11366 9.38669H2.00033C1.6467 9.38669 1.30757 9.24621 1.05752 8.99616C0.807468 8.74611 0.666992 8.40698 0.666992 8.05335C0.666992 7.69973 0.807468 7.36059 1.05752 7.11055C1.30757 6.8605 1.6467 6.72002 2.00033 6.72002H2.06033C2.28099 6.71486 2.495 6.64343 2.67453 6.51503C2.85405 6.38662 2.9908 6.20718 3.06699 6.00002C3.15574 5.79894 3.18221 5.57589 3.143 5.35963C3.10378 5.14337 3.00068 4.94381 2.84699 4.78669L2.80699 4.74669C2.68302 4.62286 2.58468 4.47581 2.51758 4.31394C2.45048 4.15208 2.41594 3.97857 2.41594 3.80335C2.41594 3.62813 2.45048 3.45463 2.51758 3.29277C2.58468 3.1309 2.68302 2.98385 2.80699 2.86002C2.93082 2.73605 3.07787 2.63771 3.23974 2.57061C3.4016 2.50351 3.57511 2.46897 3.75033 2.46897C3.92555 2.46897 4.09905 2.50351 4.26091 2.57061C4.42278 2.63771 4.56983 2.73605 4.69366 2.86002L4.73366 2.90002C4.89078 3.05371 5.09034 3.15681 5.3066 3.19602C5.52286 3.23524 5.74592 3.20876 5.94699 3.12002H6.00033C6.19751 3.03551 6.36567 2.89519 6.48412 2.71633C6.60257 2.53747 6.66614 2.32788 6.66699 2.11335V2.00002C6.66699 1.6464 6.80747 1.30726 7.05752 1.05721C7.30757 0.807163 7.6467 0.666687 8.00033 0.666687C8.35395 0.666687 8.69309 0.807163 8.94314 1.05721C9.19318 1.30726 9.33366 1.6464 9.33366 2.00002V2.06002C9.33452 2.27454 9.39808 2.48414 9.51653 2.663C9.63498 2.84186 9.80315 2.98218 10.0003 3.06669C10.2014 3.15543 10.4245 3.1819 10.6407 3.14269C10.857 3.10348 11.0565 3.00038 11.2137 2.84669L11.2537 2.80669C11.3775 2.68272 11.5245 2.58437 11.6864 2.51727C11.8483 2.45018 12.0218 2.41564 12.197 2.41564C12.3722 2.41564 12.5457 2.45018 12.7076 2.51727C12.8694 2.58437 13.0165 2.68272 13.1403 2.80669C13.2643 2.93052 13.3626 3.07757 13.4297 3.23943C13.4968 3.4013 13.5314 3.5748 13.5314 3.75002C13.5314 3.92524 13.4968 4.09874 13.4297 4.26061C13.3626 4.42247 13.2643 4.56952 13.1403 4.69335L13.1003 4.73335C12.9466 4.89047 12.8435 5.09003 12.8043 5.30629C12.7651 5.52256 12.7916 5.74561 12.8803 5.94669V6.00002C12.9648 6.1972 13.1052 6.36537 13.284 6.48382C13.4629 6.60227 13.6725 6.66583 13.887 6.66669H14.0003C14.3539 6.66669 14.6931 6.80716 14.9431 7.05721C15.1932 7.30726 15.3337 7.6464 15.3337 8.00002C15.3337 8.35364 15.1932 8.69278 14.9431 8.94283C14.6931 9.19288 14.3539 9.33335 14.0003 9.33335H13.9403C13.7258 9.33421 13.5162 9.39778 13.3374 9.51623C13.1585 9.63468 13.0182 9.80284 12.9337 10Z"
                stroke-width="1.5" stroke-linecap="round" stroke-linejoin="round" fill="none" />
        </symbol>

        <symbol id="icon-england" viewBox="0 0 32 32">
            <path fill="#1e50a0" style="fill: var(--color1, #1e50a0)" d="M2.222 7.556h27.556v16.889h-27.556z"></path>
            <path fill="#fff" style="fill: var(--color2, #fff)"
                d="M17.778 12.825v1.397h4.525l7.475-4.582v-2.085h-3.402z">
            </path>
            <path fill="#d22f27" style="fill: var(--color3, #d22f27)"
                d="M29.778 7.556h-1.701l-10.299 6.312v0.354h1.548l10.452-6.406z"></path>
            <path fill="#fff" style="fill: var(--color2, #fff)"
                d="M26.376 24.444h3.401v-2.085l-7.475-4.581h-4.525v1.397z">
            </path>
            <path fill="#d22f27" style="fill: var(--color3, #d22f27)"
                d="M29.778 24.444v-1.043l-9.176-5.624h-2.128l10.877 6.667z"></path>
            <path fill="#fff" style="fill: var(--color2, #fff)"
                d="M14.222 19.175v-1.397h-4.525l-7.475 4.582v2.085h3.402z">
            </path>
            <path fill="#d22f27" style="fill: var(--color3, #d22f27)"
                d="M2.222 24.444h1.701l10.299-6.312v-0.354h-1.548l-10.452 6.406z"></path>
            <path fill="#fff" style="fill: var(--color2, #fff)" d="M5.624 7.556h-3.401v2.085l7.475 4.581h4.525v-1.397z">
            </path>
            <path fill="#d22f27" style="fill: var(--color3, #d22f27)"
                d="M2.222 7.556v1.043l9.176 5.624h2.127l-10.877-6.667z">
            </path>
            <path fill="#fff" style="fill: var(--color2, #fff)" d="M2.222 13.778h27.556v4.444h-27.556z"></path>
            <path fill="#fff" style="fill: var(--color2, #fff)" d="M13.778 7.556h4.444v16.889h-4.444z"></path>
            <path fill="#d22f27" style="fill: var(--color3, #d22f27)" d="M2.222 14.667h27.556v2.667h-27.556z"></path>
            <path fill="#d22f27" style="fill: var(--color3, #d22f27)" d="M14.667 7.556h2.667v16.889h-2.667z"></path>
            <path fill="none" stroke="#000" style="stroke: var(--color4, #000)" stroke-linejoin="round"
                stroke-linecap="round" stroke-miterlimit="4" stroke-width="0.8889"
                d="M2.222 7.556h27.556v16.889h-27.556z"></path>
        </symbol>

        <symbol id="icon-ukraine" viewBox="0 0 43 32">
            <path fill="#ffd500" style="fill: var(--color5, #ffd500)" d="M0 0h42.667v32h-42.667z"></path>
            <path fill="#005bbb" style="fill: var(--color6, #005bbb)" d="M0 0h42.667v16h-42.667z"></path>
        </symbol>

        <symbol id="google-icon" viewBox="0 0 24 24">
            <path
                d="M22.56 12.25c0-.78-.07-1.53-.2-2.25H12v4.26h5.92c-.26 1.37-1.04 2.53-2.21 3.31v2.77h3.57c2.08-1.92 3.28-4.74 3.28-8.09z"
                fill="#4285F4" />
            <path
                d="M12 23c2.97 0 5.46-.98 7.28-2.66l-3.57-2.77c-.98.66-2.23 1.06-3.71 1.06-2.86 0-5.29-1.93-6.16-4.53H2.18v2.84C3.99 20.53 7.7 23 12 23z"
                fill="#34A853" />
            <path
                d="M5.84 14.09c-.22-.66-.35-1.36-.35-2.09s.13-1.43.35-2.09V7.07H2.18C1.43 8.55 1 10.22 1 12s.43 3.45 1.18 4.93l2.85-2.22.81-.62z"
                fill="#FBBC05" />
            <path
                d="M12 5.38c1.62 0 3.06.56 4.21 1.64l3.15-3.15C17.45 2.09 14.97 1 12 1 7.7 1 3.99 3.47 2.18 7.07l3.66 2.84c.87-2.6 3.3-4.53 6.16-4.53z"
                fill="#EA4335" />
            <path d="M1 1h22v22H1z" fill="none" />
        </symbol>

    </defs>
</svg>